<?xml version="1.0" encoding="utf-8"?>
<!-- Generator: Fusion 360, Shaper Origin Export Add-In, Version 1.5.0  -->
<svg enable-background="new 0 0 10 8" height="8cm" shaper:fusionaddin="version:1.5.0" version="1.1" viewBox="0 0 10 8" width="10cm" x="0cm" xml:space="preserve" xmlns="http://www.w3.org/2000/svg" xmlns:shaper="http://www.shapertools.com/namespaces/shaper" xmlns:xlink="http://www.w3.org/1999/xlink" y="0cm"><path d="M5.8103932,1.3 A0.5,0.5 270 0,0 5.3103932,1.8 L5.3103932,6.2 A0.5,0.5 180 0,0 5.8103932,6.7 L7.9428932,6.7 A0.1,0.1 270 0,1 8.0428932,6.8 L8.0428932,7.9 A0.1,0.1 0 0,1 7.9428932,8 L4.0928932,8 A0.25,0.25 90 0,1 3.8428932,7.75 L3.8428932,6.765 A0.25,0.25 0 0,0 3.5928932,6.515 L2.4928932,6.515 A0.25,0.25 270 0,0 2.2428932,6.765 L2.2428932,7.75 A0.25,0.25 0 0,1 1.9928932,8 L0,8 A0.5,0.5 90 0,1 -0.3535534,7.8535534 L-1.8106602,6.3964466 A0.5,0.5 135 0,1 -1.9571068,6.0428932 L-1.9571068,1.9571068 A0.5,0.5 180 0,1 -1.8106602,1.6035534 L-0.3535534,0.1464466 A0.5,0.5 225 0,1 -0,-0 L7.9428932,0 A0.1,0.1 270 0,1 8.0428932,0.1 L8.0428932,1.2 A0.1,0.1 0 0,1 7.9428932,1.3 L5.8103932,1.3z" fill="rgb(0,0,0)" shaper:cutDepth="0.00635" shaper:pathType="exterior" transform="matrix(1,0,0,-1,1.9571068,8)" vector-effect="non-scaling-stroke" /><path d="M-0.0271068,0.5 a0.17,0.17 0 1,1 0.34,0 a0.17,0.17 0 1,1 -0.34,0z" fill="rgb(255,255,255)" shaper:cutDepth="0.00635" shaper:pathType="interior" stroke="rgb(0,0,0)" transform="matrix(1,0,0,-1,1.9571068,8)" vector-effect="non-scaling-stroke" /><path d="M1.5653932,6.295 a0.16,0.16 0 1,1 0.32,0 a0.16,0.16 0 1,1 -0.32,0z" fill="rgb(255,255,255)" shaper:cutDepth="0.00635" shaper:pathType="interior" stroke="rgb(0,0,0)" transform="matrix(1,0,0,-1,1.9571068,8)" vector-effect="non-scaling-stroke" /><path d="M3.8428932,1.975 A0.05,0.05 0 0,0 3.7928932,1.925 L2.2928932,1.925 A0.05,0.05 270 0,0 2.2428932,1.975 L2.2428932,2.155 A0.05,0.05 180 0,0 2.2928932,2.205 L3.7928932,2.205 A0.05,0.05 90 0,0 3.8428932,2.155 L3.8428932,1.975z" fill="rgb(255,255,255)" shaper:cutDepth="0.00635" shaper:pathType="interior" stroke="rgb(0,0,0)" transform="matrix(1,0,0,-1,1.9571068,8)" vector-effect="non-scaling-stroke" /><path d="M4.2003932,6.295 a0.16,0.16 0 1,1 0.32,0 a0.16,0.16 0 1,1 -0.32,0z" fill="rgb(255,255,255)" shaper:cutDepth="0.00635" shaper:pathType="interior" stroke="rgb(0,0,0)" transform="matrix(1,0,0,-1,1.9571068,8)" vector-effect="non-scaling-stroke" /><path d="M2.2428932,6.025 A0.05,0.05 180 0,0 2.2928932,6.075 L3.7928932,6.075 A0.05,0.05 90 0,0 3.8428932,6.025 L3.8428932,5.845 A0.05,0.05 0 0,0 3.7928932,5.795 L2.2928932,5.795 A0.05,0.05 270 0,0 2.2428932,5.845 L2.2428932,6.025z" fill="rgb(255,255,255)" shaper:cutDepth="0.00635" shaper:pathType="interior" stroke="rgb(0,0,0)" transform="matrix(1,0,0,-1,1.9571068,8)" vector-effect="non-scaling-stroke" /><path d="M3.7928932,5.475 A0.05,0.05 90 0,0 3.8428932,5.425 L3.8428932,5.245 A0.05,0.05 0 0,0 3.7928932,5.195 L2.2928932,5.195 A0.05,0.05 270 0,0 2.2428932,5.245 L2.2428932,5.425 A0.05,0.05 180 0,0 2.2928932,5.475 L3.7928932,5.475z" fill="rgb(255,255,255)" shaper:cutDepth="0.00635" shaper:pathType="interior" stroke="rgb(0,0,0)" transform="matrix(1,0,0,-1,1.9571068,8)" vector-effect="non-scaling-stroke" /><path d="M7.4728932,0.5 a0.17,0.17 0 1,1 0.34,0 a0.17,0.17 0 1,1 -0.34,0z" fill="rgb(255,255,255)" shaper:cutDepth="0.00635" shaper:pathType="interior" stroke="rgb(0,0,0)" transform="matrix(1,0,0,-1,1.9571068,8)" vector-effect="non-scaling-stroke" /><path d="M5.7728932,0.5 a0.17,0.17 0 1,1 0.34,0 a0.17,0.17 0 1,1 -0.34,0z" fill="rgb(255,255,255)" shaper:cutDepth="0.00635" shaper:pathType="interior" stroke="rgb(0,0,0)" transform="matrix(1,0,0,-1,1.9571068,8)" vector-effect="non-scaling-stroke" /><path d="M3.7928932,1.485 A0.05,0.05 90 0,0 3.8428932,1.435 L3.8428932,0.505 A0.05,0.05 0 0,0 3.7928932,0.455 L2.2928932,0.455 A0.05,0.05 270 0,0 2.2428932,0.505 L2.2428932,1.435 A0.05,0.05 180 0,0 2.2928932,1.485 L3.7928932,1.485z" fill="rgb(255,255,255)" shaper:cutDepth="0.00635" shaper:pathType="interior" stroke="rgb(0,0,0)" transform="matrix(1,0,0,-1,1.9571068,8)" vector-effect="non-scaling-stroke" /><path d="M-0.0271068,7.5 a0.17,0.17 0 1,1 0.34,0 a0.17,0.17 0 1,1 -0.34,0z" fill="rgb(255,255,255)" shaper:cutDepth="0.00635" shaper:pathType="interior" stroke="rgb(0,0,0)" transform="matrix(1,0,0,-1,1.9571068,8)" vector-effect="non-scaling-stroke" /><path d="M5.7728932,7.5 a0.17,0.17 0 1,1 0.34,0 a0.17,0.17 0 1,1 -0.34,0z" fill="rgb(255,255,255)" shaper:cutDepth="0.00635" shaper:pathType="interior" stroke="rgb(0,0,0)" transform="matrix(1,0,0,-1,1.9571068,8)" vector-effect="non-scaling-stroke" /><path d="M4.2003932,1.705 a0.16,0.16 0 1,1 0.32,0 a0.16,0.16 0 1,1 -0.32,0z" fill="rgb(255,255,255)" shaper:cutDepth="0.00635" shaper:pathType="interior" stroke="rgb(0,0,0)" transform="matrix(1,0,0,-1,1.9571068,8)" vector-effect="non-scaling-stroke" /><path d="M7.4728932,7.5 a0.17,0.17 0 1,1 0.34,0 a0.17,0.17 0 1,1 -0.34,0z" fill="rgb(255,255,255)" shaper:cutDepth="0.00635" shaper:pathType="interior" stroke="rgb(0,0,0)" transform="matrix(1,0,0,-1,1.9571068,8)" vector-effect="non-scaling-stroke" /><path d="M2.2428932,2.755 A0.05,0.05 180 0,0 2.2928932,2.805 L3.7928932,2.805 A0.05,0.05 90 0,0 3.8428932,2.755 L3.8428932,2.575 A0.05,0.05 0 0,0 3.7928932,2.525 L2.2928932,2.525 A0.05,0.05 270 0,0 2.2428932,2.575 L2.2428932,2.755z" fill="rgb(255,255,255)" shaper:cutDepth="0.00635" shaper:pathType="interior" stroke="rgb(0,0,0)" transform="matrix(1,0,0,-1,1.9571068,8)" vector-effect="non-scaling-stroke" /><path d="M1.5653932,1.705 a0.16,0.16 0 1,1 0.32,0 a0.16,0.16 0 1,1 -0.32,0z" fill="rgb(255,255,255)" shaper:cutDepth="0.00635" shaper:pathType="interior" stroke="rgb(0,0,0)" transform="matrix(1,0,0,-1,1.9571068,8)" vector-effect="non-scaling-stroke" /><path d="M-1.3571068,6.27 a0.16,0.16 0 1,1 0.32,0 a0.16,0.16 0 1,1 -0.32,0z" fill="rgb(255,255,255)" shaper:cutDepth="0.00635" shaper:pathType="interior" stroke="rgb(0,0,0)" transform="matrix(1,0,0,-1,1.9571068,8)" vector-effect="non-scaling-stroke" /><path d="M0.1228932,6.27 a0.16,0.16 0 1,1 0.32,0 a0.16,0.16 0 1,1 -0.32,0z" fill="rgb(255,255,255)" shaper:cutDepth="0.00635" shaper:pathType="interior" stroke="rgb(0,0,0)" transform="matrix(1,0,0,-1,1.9571068,8)" vector-effect="non-scaling-stroke" /><path d="M-0.8646068,4 a0.4075,0.4075 0 1,1 0.815,0 a0.4075,0.4075 0 1,1 -0.815,0z" fill="rgb(255,255,255)" shaper:cutDepth="0.00635" shaper:pathType="interior" stroke="rgb(0,0,0)" transform="matrix(1,0,0,-1,1.9571068,8)" vector-effect="non-scaling-stroke" /></svg>