<?xml version="1.0" encoding="utf-8"?>
<!-- Generator: Adobe Illustrator 22.0.0, SVG Export Plug-In . SVG Version: 6.00 Build 0)  -->
<svg version="1.1" id="图层_1" xmlns="http://www.w3.org/2000/svg" xmlns:xlink="http://www.w3.org/1999/xlink" x="0px" y="0px"
	 viewBox="0 0 401.3 271.1" style="enable-background:new 0 0 401.3 271.1;" xml:space="preserve">
<style type="text/css">
	.st0{fill:none;stroke:#31006F;stroke-miterlimit:10;}
	.st1{fill:none;stroke:#000000;stroke-miterlimit:10;}
	.st2{fill:#040000;}
	.st3{fill:none;}
	.st4{enable-background:new    ;}
</style>
<g>
	<path d="M277.1,61.1h7.3v24.4h-4.7V69c0-0.5,0-1.1,0-2s0-1.5,0-2l-4.6,20.4h-4.9L265.6,65c0,0.5,0,1.1,0,2s0,1.5,0,2v16.5h-4.7
		V61.1h7.4l4.4,19.2L277.1,61.1z"/>
	<path d="M289.3,61.1h5v10l9.4-10h6.6l-10,10l10.5,14.3h-6.5l-7.5-10.6l-2.5,2.5v8.1h-5V61.1z"/>
	<path d="M329.2,61.7c0.9,0.4,1.7,1,2.3,1.7c0.5,0.6,0.9,1.3,1.2,2c0.3,0.7,0.5,1.6,0.5,2.6c0,1.2-0.3,2.3-0.9,3.4s-1.5,1.9-2.9,2.4
		c1.1,0.5,1.9,1.1,2.4,1.9s0.7,2.1,0.7,3.8v1.6c0,1.1,0,1.9,0.1,2.3c0.1,0.6,0.4,1.1,0.9,1.4v0.6H328c-0.2-0.5-0.3-1-0.3-1.3
		c-0.1-0.7-0.2-1.4-0.2-2.1v-2.3c0-1.6-0.3-2.6-0.8-3.1s-1.5-0.8-2.9-0.8h-5v9.6h-5V61.1h11.6C327.1,61.1,328.3,61.4,329.2,61.7z
		 M318.7,65.3v6.5h5.5c1.1,0,1.9-0.1,2.4-0.4c1-0.5,1.4-1.4,1.4-2.7c0-1.5-0.5-2.5-1.4-3c-0.5-0.3-1.3-0.4-2.4-0.4H318.7z"/>
	<path d="M264.7,111.8c0.2,1.1,0.5,1.9,0.9,2.5c0.8,1,2.3,1.5,4.3,1.5c1.2,0,2.2-0.1,3-0.4c1.5-0.5,2.2-1.4,2.2-2.8
		c0-0.8-0.4-1.4-1.1-1.9c-0.7-0.4-1.8-0.8-3.4-1.1L268,109c-2.6-0.6-4.4-1.2-5.3-1.9c-1.6-1.1-2.5-2.9-2.5-5.3c0-2.2,0.8-4,2.4-5.4
		s4-2.2,7.1-2.2c2.6,0,4.8,0.7,6.6,2c1.8,1.4,2.8,3.3,2.9,5.9h-4.9c-0.1-1.5-0.7-2.5-2-3.1c-0.8-0.4-1.8-0.6-3-0.6
		c-1.3,0-2.4,0.3-3.2,0.8c-0.8,0.5-1.2,1.3-1.2,2.2c0,0.9,0.4,1.5,1.2,1.9c0.5,0.3,1.6,0.6,3.2,1l4.3,1c1.9,0.4,3.3,1,4.2,1.8
		c1.5,1.1,2.2,2.8,2.2,5s-0.9,4.1-2.6,5.5c-1.7,1.5-4.2,2.2-7.3,2.2c-3.2,0-5.7-0.7-7.6-2.2c-1.8-1.4-2.8-3.4-2.8-6h5V111.8z"/>
	<path d="M299.9,108.8c-1.4,1.2-3.5,1.8-6.1,1.8h-5.1v8.8h-5.1V95h10.5c2.4,0,4.3,0.6,5.8,1.9c1.4,1.3,2.2,3.2,2.2,5.8
		C302.1,105.5,301.3,107.6,299.9,108.8z M296,100c-0.6-0.5-1.5-0.8-2.7-0.8h-4.6v7.2h4.6c1.2,0,2.1-0.3,2.7-0.9s1-1.5,1-2.8
		C297,101.4,296.7,100.5,296,100z"/>
	<path d="M308.5,97.5c2-2,4.5-3,7.5-3c4.1,0,7,1.3,8.9,4c1,1.5,1.6,3,1.7,4.5h-5.1c-0.3-1.2-0.7-2-1.2-2.6c-0.9-1.1-2.3-1.6-4-1.6
		c-1.8,0-3.2,0.7-4.3,2.2c-1,1.5-1.6,3.6-1.6,6.3c0,2.7,0.6,4.8,1.7,6.1c1.1,1.4,2.5,2,4.2,2s3.1-0.6,4-1.8c0.5-0.6,0.9-1.6,1.3-2.8
		h5.1c-0.4,2.7-1.6,4.8-3.3,6.5s-4.1,2.5-6.9,2.5c-3.5,0-6.2-1.1-8.2-3.4s-3-5.4-3-9.3C305.1,103.1,306.2,99.8,308.5,97.5z"/>
</g>
<polygon class="st0" points="25,59.8 25,70.5 31.8,70.5 43.7,118.3 60.3,118.3 68.3,88.4 75.9,118.3 92.6,118.3 105.2,70.5 
	111.6,70.5 111.6,59.8 88.6,59.8 88.6,70.5 96.2,70.5 88,101.6 77.7,59.8 67.1,59.8 55.9,101.9 47.8,70.5 56.1,70.5 56.1,59.8 "/>
<g>
	<path d="M30,223.6c-1.7,0-2.9-0.4-4-1.5l0.8-0.8c1,1,1.9,1.3,3.1,1.3c1.7,0,2.7-0.8,2.7-2.1c0-0.6-0.2-1.1-0.6-1.4
		c-0.4-0.3-0.7-0.4-1.5-0.6l-1.3-0.2c-0.9-0.1-1.6-0.4-2.1-0.9c-0.6-0.5-0.9-1.2-0.9-2.2c0-2,1.4-3.3,3.7-3.3c1.5,0,2.5,0.4,3.4,1.3
		l-0.8,0.8c-0.7-0.6-1.5-1-2.7-1c-1.5,0-2.4,0.9-2.4,2.1c0,0.6,0.2,1,0.5,1.3c0.4,0.3,1,0.5,1.6,0.6l1.3,0.2
		c1.1,0.2,1.6,0.4,2.1,0.8c0.6,0.5,1,1.3,1,2.3C34,222.3,32.4,223.6,30,223.6z"/>
	<path d="M39.8,218.3v-1.1h6.8v1.1H39.8z M39.8,221v-1.1h6.8v1.1H39.8z"/>
	<path d="M56.1,223.6c-1.7,0-2.9-0.4-4-1.5l0.8-0.8c1,1,1.9,1.3,3.1,1.3c1.7,0,2.7-0.8,2.7-2.1c0-0.6-0.2-1.1-0.6-1.4
		c-0.4-0.3-0.7-0.4-1.5-0.6l-1.3-0.2c-0.9-0.1-1.6-0.4-2.1-0.9c-0.6-0.5-0.9-1.2-0.9-2.2c0-2,1.4-3.3,3.7-3.3c1.5,0,2.5,0.4,3.4,1.3
		l-0.8,0.8c-0.7-0.6-1.5-1-2.7-1c-1.5,0-2.4,0.9-2.4,2.1c0,0.6,0.2,1,0.5,1.3c0.4,0.3,1,0.5,1.6,0.6l1.3,0.2
		c1.1,0.2,1.6,0.4,2.1,0.8c0.6,0.5,1,1.3,1,2.3C60.1,222.3,58.5,223.6,56.1,223.6z"/>
	<path d="M67.8,222.9c-0.4,0.4-1.1,0.7-1.9,0.7c-0.9,0-1.6-0.2-2.3-1v4.5h-1.2v-11.6h1.2v0.9c0.6-0.8,1.4-1,2.3-1
		c0.8,0,1.5,0.3,1.9,0.7c0.8,0.8,1,2.1,1,3.4C68.8,220.7,68.7,222,67.8,222.9z M65.6,216.4c-1.7,0-2,1.5-2,3.1s0.3,3.1,2,3.1
		c1.7,0,2-1.5,2-3.1S67.4,216.4,65.6,216.4z"/>
	<path d="M72,219.8c0,1.8,0.8,2.8,2.4,2.8c0.9,0,1.5-0.3,2.1-0.9l0.8,0.7c-0.8,0.8-1.6,1.2-2.9,1.2c-2.1,0-3.5-1.3-3.5-4.1
		c0-2.6,1.3-4.1,3.3-4.1c2.1,0,3.3,1.5,3.3,3.9v0.5L72,219.8L72,219.8z M76,217.6c-0.3-0.7-1-1.2-1.9-1.2c-0.8,0-1.6,0.5-1.9,1.2
		c-0.2,0.4-0.2,0.7-0.2,1.3h4.2C76.2,218.2,76.2,218,76,217.6z"/>
	<path d="M80.7,219.8c0,1.8,0.8,2.8,2.4,2.8c0.9,0,1.5-0.3,2.1-0.9l0.8,0.7c-0.8,0.8-1.6,1.2-2.9,1.2c-2.1,0-3.5-1.3-3.5-4.1
		c0-2.6,1.3-4.1,3.3-4.1c2.1,0,3.3,1.5,3.3,3.9v0.5L80.7,219.8L80.7,219.8z M84.6,217.6c-0.3-0.7-1-1.2-1.9-1.2s-1.6,0.5-1.9,1.2
		c-0.2,0.4-0.2,0.7-0.2,1.3h4.2C84.8,218.2,84.8,218,84.6,217.6z"/>
	<path d="M93.3,223.5v-1c-0.6,0.8-1.4,1.1-2.3,1.1c-0.8,0-1.5-0.3-1.9-0.7c-0.8-0.8-1-2.1-1-3.4c0-1.3,0.2-2.6,1-3.4
		c0.4-0.4,1.1-0.7,1.9-0.7c0.9,0,1.6,0.2,2.3,1v-4.5h1.2v11.6L93.3,223.5L93.3,223.5z M91.3,216.4c-1.7,0-2,1.5-2,3.1s0.3,3.1,2,3.1
		s2-1.5,2-3.1S93,216.4,91.3,216.4z"/>
	<path d="M97.4,225.8V222h1.4v2.5L97.4,225.8z"/>
	<path d="M110.2,218.7h-3.1v4.8h-1.2v-11.6h4.3c2.1,0,3.6,1.3,3.6,3.4S112.3,218.7,110.2,218.7z M110.1,213h-3v4.6h3
		c1.4,0,2.5-0.8,2.5-2.3S111.6,213,110.1,213z"/>
	<path d="M115.3,218.3v-1.1h6.8v1.1H115.3z M115.3,221v-1.1h6.8v1.1H115.3z"/>
	<path d="M128.9,218.7h-3.1v4.8h-1.2v-11.6h4.3c2.1,0,3.6,1.3,3.6,3.4S131.1,218.7,128.9,218.7z M128.8,213h-3v4.6h3
		c1.4,0,2.5-0.8,2.5-2.3S130.3,213,128.8,213z"/>
	<path d="M139.6,222.6c-0.6,0.6-1.3,0.9-2.3,0.9s-1.7-0.4-2.3-0.9c-0.8-0.8-1-1.9-1-3.2c0-1.2,0.2-2.4,1-3.2
		c0.6-0.6,1.3-0.9,2.3-0.9s1.7,0.4,2.3,0.9c0.8,0.8,1,1.9,1,3.2C140.6,220.7,140.4,221.8,139.6,222.6z M138.8,217
		c-0.4-0.4-0.9-0.6-1.5-0.6s-1.1,0.2-1.4,0.6c-0.6,0.6-0.6,1.6-0.6,2.5s0.1,1.9,0.6,2.5c0.4,0.4,0.9,0.6,1.4,0.6
		c0.6,0,1.1-0.2,1.5-0.6c0.6-0.6,0.6-1.6,0.6-2.5C139.4,218.6,139.4,217.6,138.8,217z"/>
	<path d="M150.6,223.5h-1.1l-2.1-6.2l-2.1,6.2h-1.1l-2.5-8h1.3l1.8,6.4l2.1-6.4h1l2.1,6.4l1.8-6.4h1.3L150.6,223.5z"/>
	<path d="M155.4,219.8c0,1.8,0.8,2.8,2.4,2.8c0.9,0,1.5-0.3,2.1-0.9l0.8,0.7c-0.8,0.8-1.6,1.2-2.9,1.2c-2.1,0-3.5-1.3-3.5-4.1
		c0-2.6,1.2-4.1,3.3-4.1s3.3,1.5,3.3,3.9v0.5L155.4,219.8L155.4,219.8z M159.4,217.6c-0.3-0.7-1-1.2-1.9-1.2c-0.8,0-1.6,0.5-1.9,1.2
		c-0.2,0.4-0.2,0.7-0.2,1.3h4.2C159.6,218.2,159.6,218,159.4,217.6z"/>
	<path d="M167.8,217c-0.4-0.4-0.8-0.6-1.4-0.6c-1.2,0-1.9,0.9-1.9,2.1v4.9h-1.2v-8h1.2v1c0.4-0.7,1.3-1.1,2.2-1.1
		c0.8,0,1.3,0.2,1.9,0.7L167.8,217z"/>
</g>
<circle class="st1" cx="328.6" cy="28.7" r="7.1"/>
<path class="st2" d="M196.4,87.9l14.5-16.6l-22.6-0.1l-3.9,4.3l-18.8-19.1H142l29.8,32.3l-30.9,32.6h25.9l17.2-19.4l4,4.3h26.3
	L196.4,87.9z M183.9,102.1L172.1,89l12.4-13.2l12,12.4L183.9,102.1z"/>
<rect x="21.5" y="21.6" class="st3" width="97.4" height="26.3"/>
<g class="st4">
	<path d="M30.7,34.2c-0.2,0.4-0.5,0.8-0.9,1.1c-0.4,0.3-0.8,0.5-1.2,0.7c-0.5,0.2-1,0.2-1.5,0.2c-0.6,0-1.2-0.1-1.7-0.3
		c-0.5-0.2-1-0.5-1.4-0.9c-0.3-0.3-0.5-0.6-0.7-0.9c-0.2-0.3-0.3-0.6-0.3-1s-0.1-0.8-0.1-1.3c0-0.5,0-1,0-1.7c0-0.6,0-1.2,0-1.7
		c0-0.5,0.1-0.9,0.1-1.3s0.2-0.7,0.3-1c0.2-0.3,0.4-0.6,0.7-0.9c0.4-0.4,0.9-0.7,1.4-0.9c0.5-0.2,1.1-0.3,1.7-0.3
		c0.5,0,1,0.1,1.5,0.2c0.5,0.2,0.9,0.4,1.2,0.7c0.4,0.3,0.7,0.7,0.9,1.1c0.2,0.4,0.4,1,0.5,1.5h-1.3c-0.2-0.7-0.5-1.3-1-1.8
		c-0.5-0.4-1.1-0.7-1.9-0.7c-0.4,0-0.8,0.1-1.1,0.2s-0.7,0.4-0.9,0.6c-0.2,0.2-0.3,0.4-0.5,0.6c-0.1,0.2-0.2,0.5-0.3,0.8
		c-0.1,0.3-0.1,0.7-0.1,1.1s0,1,0,1.6s0,1.2,0,1.6c0,0.4,0.1,0.8,0.1,1.1c0.1,0.3,0.1,0.6,0.3,0.8s0.3,0.4,0.5,0.6
		c0.3,0.3,0.6,0.5,0.9,0.6c0.4,0.1,0.8,0.2,1.1,0.2c0.8,0,1.4-0.2,1.9-0.7c0.5-0.4,0.8-1,1-1.8h1.3C31.1,33.2,31,33.7,30.7,34.2z"/>
	<path d="M33.6,32.1V31h4.7v1.1H33.6z"/>
	<path d="M42.6,25.2v4.5h5.3v1.2h-5.3v5.3h-1.3V24h7.5v1.2H42.6z"/>
	<path d="M53.1,36.1c-0.7,0-1.3-0.2-1.6-0.6c-0.3-0.4-0.5-1-0.5-1.6V24h1.2v9.8c0,0.4,0.1,0.7,0.2,0.9s0.5,0.3,0.9,0.3h0.7v1.1H53.1
		z"/>
	<path d="M61.3,36.1v-0.9c-0.3,0.3-0.6,0.6-1,0.8c-0.4,0.2-0.8,0.3-1.3,0.3c-0.9,0-1.6-0.3-2.2-0.8c-0.3-0.3-0.5-0.6-0.6-1
		c-0.1-0.4-0.2-0.8-0.2-1.3v-5.3h1.2v5.2c0,0.7,0.2,1.3,0.5,1.7s0.9,0.6,1.5,0.6c0.6,0,1.1-0.2,1.5-0.6c0.4-0.4,0.6-0.9,0.6-1.7
		v-5.2h1.2v8.4H61.3z"/>
	<path d="M67.9,36.1c-0.4,0-0.7-0.1-0.9-0.2c-0.3-0.1-0.5-0.3-0.7-0.5S66,35,65.9,34.8c-0.1-0.3-0.1-0.6-0.1-0.9v-5.1h-1.1v-0.9h1.1
		v-2.6H67v2.6h1.8v0.9H67v5.1c0,0.4,0.1,0.7,0.3,0.9c0.2,0.2,0.5,0.3,0.9,0.3h0.6v1.1H67.9z"/>
	<path d="M71.8,32.3c0,0.9,0.2,1.6,0.6,2.1c0.4,0.5,1,0.8,1.8,0.8c0.5,0,0.9-0.1,1.2-0.2c0.3-0.2,0.6-0.4,1-0.7l0.8,0.7
		c-0.2,0.2-0.4,0.4-0.6,0.6c-0.2,0.2-0.4,0.3-0.7,0.4c-0.2,0.1-0.5,0.2-0.8,0.2s-0.6,0.1-1,0.1c-0.6,0-1.1-0.1-1.5-0.3
		c-0.4-0.2-0.8-0.4-1.1-0.8c-0.3-0.4-0.6-0.8-0.7-1.3s-0.3-1.2-0.3-1.9c0-1.4,0.3-2.4,0.9-3.2c0.6-0.7,1.5-1.1,2.5-1.1
		c1.1,0,1.9,0.4,2.5,1.1c0.6,0.7,0.9,1.7,0.9,3v0.6H71.8z M76.2,30.9c0-0.1,0-0.2,0-0.3c0-0.1,0-0.2-0.1-0.3S76.1,30.1,76,30
		c-0.2-0.4-0.4-0.7-0.8-0.9c-0.4-0.2-0.7-0.3-1.2-0.3s-0.8,0.1-1.2,0.3c-0.4,0.2-0.6,0.5-0.8,0.9c-0.1,0.2-0.2,0.4-0.2,0.6
		c0,0.2-0.1,0.4-0.1,0.8h4.4C76.2,31.2,76.2,31,76.2,30.9z"/>
</g>
<rect x="143.6" y="21.6" class="st3" width="166.7" height="26.3"/>
<g class="st4">
	<path d="M150.3,34.2v1.9h-1.2v-1.9h-4.8v-1.1l4.4-9.1h1.3l-4.4,9.1l3.5,0v-3.4h1.2v3.4h1.5v1.1H150.3z"/>
	<path d="M164.7,36.1V31c0-0.7-0.2-1.3-0.6-1.7c-0.4-0.4-0.9-0.6-1.5-0.6c-0.6,0-1.1,0.2-1.5,0.5c-0.4,0.4-0.6,0.9-0.6,1.5v5.3h-1.2
		V31c0-0.7-0.2-1.3-0.6-1.7c-0.4-0.4-0.9-0.6-1.5-0.6s-1.1,0.2-1.5,0.6s-0.6,0.9-0.6,1.7v5.2H154v-8.4h1.2v0.9
		c0.3-0.3,0.6-0.6,1-0.8s0.8-0.3,1.3-0.3c0.6,0,1.1,0.1,1.5,0.3c0.4,0.2,0.8,0.6,1,1c0.7-0.9,1.6-1.4,2.8-1.4c0.5,0,0.9,0.1,1.2,0.2
		c0.4,0.1,0.7,0.3,0.9,0.6c0.6,0.6,0.9,1.4,0.9,2.3v5.4H164.7z"/>
	<path d="M179.7,36.1V31c0-0.7-0.2-1.3-0.6-1.7s-0.9-0.6-1.5-0.6c-0.6,0-1.1,0.2-1.5,0.5c-0.4,0.4-0.6,0.9-0.6,1.5v5.3h-1.2V31
		c0-0.7-0.2-1.3-0.6-1.7s-0.9-0.6-1.5-0.6c-0.6,0-1.1,0.2-1.5,0.6c-0.4,0.4-0.6,0.9-0.6,1.7v5.2h-1.2v-8.4h1.2v0.9
		c0.3-0.3,0.6-0.6,1-0.8s0.8-0.3,1.3-0.3c0.6,0,1.1,0.1,1.5,0.3s0.8,0.6,1,1c0.7-0.9,1.6-1.4,2.8-1.4c0.5,0,0.9,0.1,1.2,0.2
		c0.4,0.1,0.7,0.3,0.9,0.6c0.6,0.6,0.9,1.4,0.9,2.3v5.4H179.7z"/>
	<path d="M187.8,37.4h-1.2l4.8-14.6h1.2L187.8,37.4z"/>
	<path d="M204.3,34.3c-0.2,0.4-0.4,0.8-0.7,1.1c-0.3,0.3-0.6,0.5-1,0.7c-0.4,0.2-0.8,0.2-1.3,0.2c-0.5,0-0.9-0.1-1.3-0.2
		c-0.4-0.2-0.8-0.4-1-0.7s-0.5-0.6-0.7-1.1s-0.3-0.9-0.3-1.4v-5.6c0-0.5,0.1-1,0.3-1.4c0.2-0.4,0.4-0.8,0.7-1.1s0.6-0.5,1-0.7
		c0.4-0.2,0.8-0.2,1.3-0.2c0.5,0,0.9,0.1,1.3,0.2c0.4,0.2,0.8,0.4,1,0.7c0.3,0.3,0.5,0.6,0.7,1.1c0.2,0.4,0.3,0.9,0.3,1.4v5.6
		C204.6,33.4,204.5,33.9,204.3,34.3z M203.4,27.3c0-0.7-0.2-1.2-0.5-1.7c-0.4-0.4-0.9-0.7-1.6-0.7c-0.7,0-1.2,0.2-1.6,0.7
		c-0.4,0.4-0.5,1-0.5,1.7v5.5c0,0.7,0.2,1.2,0.5,1.7c0.4,0.4,0.9,0.7,1.6,0.7c0.7,0,1.2-0.2,1.6-0.7c0.4-0.4,0.5-1,0.5-1.7V27.3z"/>
	<path d="M207.2,36.1v-1.6h1.6v1.6H207.2z"/>
	<path d="M214.7,36.1V25.4l-2.3,2V26l2.3-2h1.2v12.1H214.7z"/>
	<path d="M226.8,34.1c-0.2,0.4-0.4,0.8-0.7,1.1s-0.6,0.6-1.1,0.7c-0.4,0.2-0.9,0.3-1.4,0.3s-1-0.1-1.4-0.2c-0.4-0.2-0.8-0.4-1.1-0.7
		c-0.3-0.3-0.5-0.7-0.7-1.1c-0.2-0.4-0.2-0.9-0.2-1.4c0-0.4,0.1-0.9,0.2-1.3c0.1-0.4,0.3-0.9,0.6-1.4l3-6h1.3l-2.7,5.4
		c0.4-0.2,0.8-0.3,1.3-0.3s0.9,0.1,1.3,0.3c0.4,0.2,0.7,0.4,1,0.7c0.3,0.3,0.5,0.7,0.6,1.1c0.2,0.4,0.2,0.9,0.2,1.4
		C227,33.2,226.9,33.6,226.8,34.1z M225.6,31.8c-0.1-0.3-0.2-0.6-0.4-0.8c-0.2-0.2-0.4-0.4-0.7-0.5c-0.3-0.1-0.6-0.2-0.9-0.2
		c-0.6,0-1.2,0.2-1.5,0.7c-0.4,0.4-0.6,1-0.6,1.8c0,0.7,0.2,1.3,0.6,1.8c0.4,0.4,0.9,0.7,1.5,0.7c0.6,0,1.2-0.2,1.6-0.7
		c0.4-0.4,0.6-1,0.6-1.8C225.8,32.4,225.7,32.1,225.6,31.8z"/>
	<path d="M229.5,25.4V24h1.4v1.4H229.5z M229.6,36.1v-8.4h1.2v8.4H229.6z"/>
	<path d="M239.2,36.1V31c0-0.7-0.2-1.3-0.6-1.7s-0.9-0.6-1.5-0.6c-0.6,0-1.1,0.2-1.5,0.6s-0.6,0.9-0.6,1.7v5.2h-1.2v-8.4h1.2v0.9
		c0.3-0.3,0.6-0.6,1-0.8c0.4-0.2,0.8-0.3,1.3-0.3c0.9,0,1.6,0.3,2.1,0.8c0.6,0.6,0.9,1.3,0.9,2.3v5.4H239.2z"/>
</g>
<rect x="26" y="133" class="st3" width="34" height="20"/>
<g class="st4">
	<path d="M35.2,145.5c-0.2,0.4-0.5,0.8-0.9,1.1c-0.4,0.3-0.8,0.5-1.2,0.7c-0.5,0.2-1,0.2-1.5,0.2c-0.6,0-1.2-0.1-1.7-0.3
		c-0.5-0.2-1-0.5-1.4-0.9c-0.3-0.3-0.5-0.6-0.7-0.9c-0.2-0.3-0.3-0.6-0.3-1s-0.1-0.8-0.1-1.3c0-0.5,0-1,0-1.7c0-0.6,0-1.2,0-1.7
		c0-0.5,0.1-0.9,0.1-1.3s0.2-0.7,0.3-1c0.2-0.3,0.4-0.6,0.7-0.9c0.4-0.4,0.9-0.7,1.4-0.9c0.5-0.2,1.1-0.3,1.7-0.3
		c0.5,0,1,0.1,1.5,0.2c0.5,0.2,0.9,0.4,1.2,0.7c0.4,0.3,0.7,0.7,0.9,1.1c0.2,0.4,0.4,1,0.5,1.5h-1.3c-0.2-0.7-0.5-1.3-1-1.8
		c-0.5-0.4-1.1-0.7-1.9-0.7c-0.4,0-0.8,0.1-1.1,0.2s-0.7,0.4-0.9,0.6c-0.2,0.2-0.3,0.4-0.5,0.6c-0.1,0.2-0.2,0.5-0.3,0.8
		c-0.1,0.3-0.1,0.7-0.1,1.1s0,1,0,1.6s0,1.2,0,1.6s0.1,0.8,0.1,1.1c0.1,0.3,0.1,0.6,0.3,0.8s0.3,0.4,0.5,0.6
		c0.3,0.3,0.6,0.5,0.9,0.6c0.4,0.1,0.8,0.2,1.1,0.2c0.8,0,1.4-0.2,1.9-0.7c0.5-0.4,0.8-1,1-1.8h1.3
		C35.6,144.6,35.5,145.1,35.2,145.5z"/>
	<path d="M46.6,145.2c-0.2,0.5-0.5,0.9-0.9,1.3c-0.4,0.4-0.8,0.6-1.3,0.8s-1.1,0.3-1.7,0.3c-0.6,0-1.2-0.1-1.7-0.3s-1-0.5-1.3-0.8
		c-0.4-0.4-0.7-0.8-0.9-1.3c-0.2-0.5-0.3-1.1-0.3-1.7v-8.1h1.3v8c0,0.5,0.1,0.9,0.2,1.3c0.1,0.4,0.3,0.7,0.6,1s0.6,0.5,0.9,0.6
		c0.4,0.1,0.8,0.2,1.2,0.2s0.8-0.1,1.2-0.2c0.4-0.1,0.7-0.4,0.9-0.6c0.3-0.3,0.5-0.6,0.6-1s0.2-0.8,0.2-1.3v-8h1.3v8.1
		C46.9,144.1,46.8,144.7,46.6,145.2z"/>
	<path d="M53.8,136.6v10.9h-1.3v-10.9H49v-1.2h8.3v1.2H53.8z"/>
</g>
<rect x="26" y="155.4" class="st3" width="52" height="35.5"/>
<g class="st4">
	<path d="M34.8,168.1c-0.2,0.4-0.5,0.8-0.9,1.1c-0.4,0.3-0.8,0.5-1.3,0.7c-0.5,0.2-1.1,0.2-1.7,0.2c-0.9,0-1.7-0.1-2.3-0.4
		c-0.6-0.2-1.3-0.7-1.8-1.2l0.9-0.9c0.5,0.5,1,0.8,1.5,1c0.5,0.2,1.1,0.3,1.8,0.3c0.9,0,1.6-0.2,2.1-0.6c0.5-0.4,0.8-0.9,0.8-1.7
		c0-0.3,0-0.6-0.1-0.9s-0.2-0.5-0.4-0.6c-0.2-0.2-0.4-0.3-0.6-0.4c-0.2-0.1-0.5-0.1-1-0.2l-1.4-0.2c-1-0.2-1.7-0.5-2.2-0.9
		c-0.6-0.5-0.9-1.3-0.9-2.3c0-0.5,0.1-1,0.3-1.4c0.2-0.4,0.4-0.8,0.8-1.1c0.3-0.3,0.7-0.5,1.2-0.7c0.5-0.2,1-0.2,1.6-0.2
		c0.8,0,1.4,0.1,2,0.3s1.1,0.5,1.6,1l-0.8,0.8c-0.4-0.3-0.8-0.6-1.2-0.8s-1-0.3-1.6-0.3c-0.8,0-1.4,0.2-1.9,0.6
		c-0.4,0.4-0.7,1-0.7,1.6c0,0.6,0.2,1.1,0.5,1.4c0.2,0.2,0.4,0.3,0.7,0.4s0.6,0.2,0.9,0.3l1.3,0.2c0.3,0,0.5,0.1,0.8,0.1
		c0.2,0.1,0.4,0.1,0.6,0.2c0.2,0.1,0.3,0.1,0.5,0.2c0.1,0.1,0.3,0.2,0.4,0.3c0.7,0.6,1,1.4,1,2.4C35.1,167.1,35,167.6,34.8,168.1z"
		/>
	<path d="M41.4,169.9v-1.1l4.8-6.1c0.2-0.3,0.4-0.6,0.5-0.9c0.1-0.3,0.2-0.6,0.2-0.9c0-0.7-0.2-1.2-0.6-1.6
		c-0.4-0.4-0.9-0.6-1.6-0.6c-0.3,0-0.6,0-0.8,0.1c-0.3,0.1-0.5,0.2-0.7,0.4c-0.2,0.2-0.3,0.4-0.5,0.7c-0.1,0.3-0.2,0.6-0.2,1h-1.2
		c0-0.5,0.1-0.9,0.2-1.3c0.2-0.4,0.4-0.7,0.7-1s0.6-0.5,1-0.7c0.4-0.2,0.9-0.2,1.4-0.2c0.5,0,1,0.1,1.4,0.2c0.4,0.2,0.8,0.4,1.1,0.7
		c0.3,0.3,0.5,0.6,0.7,1c0.2,0.4,0.2,0.9,0.2,1.4c0,0.5-0.1,0.9-0.2,1.3c-0.2,0.4-0.4,0.8-0.7,1.2l-4.2,5.4h5.2v1.1H41.4z"/>
	<path d="M56.6,168.1c-0.2,0.4-0.4,0.8-0.7,1.1c-0.3,0.3-0.6,0.5-1,0.7c-0.4,0.2-0.8,0.2-1.3,0.2s-0.9-0.1-1.3-0.2
		c-0.4-0.2-0.8-0.4-1-0.7c-0.3-0.3-0.5-0.6-0.7-1.1s-0.3-0.9-0.3-1.4v-5.6c0-0.5,0.1-1,0.3-1.4c0.2-0.4,0.4-0.8,0.7-1.1
		c0.3-0.3,0.6-0.5,1-0.7c0.4-0.2,0.8-0.2,1.3-0.2s0.9,0.1,1.3,0.2c0.4,0.2,0.8,0.4,1,0.7c0.3,0.3,0.5,0.6,0.7,1.1
		c0.2,0.4,0.3,0.9,0.3,1.4v5.6C56.9,167.2,56.8,167.7,56.6,168.1z M55.6,161.1c0-0.7-0.2-1.2-0.5-1.7c-0.4-0.4-0.9-0.7-1.6-0.7
		s-1.2,0.2-1.6,0.7c-0.4,0.4-0.5,1-0.5,1.7v5.5c0,0.7,0.2,1.2,0.5,1.7c0.4,0.4,0.9,0.7,1.6,0.7s1.2-0.2,1.6-0.7
		c0.4-0.4,0.5-1,0.5-1.7V161.1z"/>
	<path d="M65.5,168.1c-0.2,0.4-0.4,0.8-0.7,1.1c-0.3,0.3-0.6,0.5-1,0.7c-0.4,0.2-0.8,0.2-1.3,0.2s-0.9-0.1-1.3-0.2
		c-0.4-0.2-0.8-0.4-1-0.7c-0.3-0.3-0.5-0.6-0.7-1.1s-0.3-0.9-0.3-1.4v-5.6c0-0.5,0.1-1,0.3-1.4c0.2-0.4,0.4-0.8,0.7-1.1
		c0.3-0.3,0.6-0.5,1-0.7c0.4-0.2,0.8-0.2,1.3-0.2s0.9,0.1,1.3,0.2c0.4,0.2,0.8,0.4,1,0.7c0.3,0.3,0.5,0.6,0.7,1.1
		c0.2,0.4,0.3,0.9,0.3,1.4v5.6C65.7,167.2,65.7,167.7,65.5,168.1z M64.5,161.1c0-0.7-0.2-1.2-0.5-1.7c-0.4-0.4-0.9-0.7-1.6-0.7
		s-1.2,0.2-1.6,0.7c-0.4,0.4-0.5,1-0.5,1.7v5.5c0,0.7,0.2,1.2,0.5,1.7c0.4,0.4,0.9,0.7,1.6,0.7s1.2-0.2,1.6-0.7
		c0.4-0.4,0.5-1,0.5-1.7V161.1z"/>
</g>
<g class="st4">
	<path d="M35.7,182.9c-0.2,0.4-0.4,0.8-0.8,1.1c-0.3,0.3-0.7,0.5-1.2,0.7s-1,0.3-1.5,0.3h-3.2v5h-1.3v-12.1h4.5
		c0.6,0,1.1,0.1,1.5,0.2s0.9,0.4,1.2,0.7s0.6,0.7,0.8,1.1c0.2,0.4,0.3,0.9,0.3,1.5S35.9,182.4,35.7,182.9z M34,179.6
		c-0.5-0.4-1.1-0.6-1.9-0.6h-3.1v4.8h3.1c0.8,0,1.4-0.2,1.9-0.6c0.5-0.4,0.7-1,0.7-1.8S34.5,180,34,179.6z"/>
	<path d="M44.8,189.9h-1.3l4.2-11h-4.2v1.9h-1.2v-3H49v1.1L44.8,189.9z"/>
	<path d="M57.3,188.1c-0.2,0.4-0.4,0.8-0.7,1.1c-0.3,0.3-0.6,0.5-1,0.7c-0.4,0.2-0.8,0.2-1.3,0.2s-0.9-0.1-1.3-0.2
		c-0.4-0.2-0.8-0.4-1-0.7c-0.3-0.3-0.5-0.6-0.7-1.1s-0.3-0.9-0.3-1.4v-5.6c0-0.5,0.1-1,0.3-1.4c0.2-0.4,0.4-0.8,0.7-1.1
		c0.3-0.3,0.6-0.5,1-0.7c0.4-0.2,0.8-0.2,1.3-0.2s0.9,0.1,1.3,0.2c0.4,0.2,0.8,0.4,1,0.7c0.3,0.3,0.5,0.6,0.7,1.1
		c0.2,0.4,0.3,0.9,0.3,1.4v5.6C57.6,187.2,57.5,187.7,57.3,188.1z M56.4,181.1c0-0.7-0.2-1.2-0.5-1.7c-0.4-0.4-0.9-0.7-1.6-0.7
		s-1.2,0.2-1.6,0.7c-0.4,0.4-0.5,1-0.5,1.7v5.5c0,0.7,0.2,1.2,0.5,1.7c0.4,0.4,0.9,0.7,1.6,0.7s1.2-0.2,1.6-0.7
		c0.4-0.4,0.5-1,0.5-1.7V181.1z"/>
</g>
<rect x="131.1" y="133" class="st3" width="81.9" height="20.8"/>
<g class="st4">
	<path d="M132.9,147.5v-12.1h7.5v1.2h-6.2v4.3h5.3v1.2h-5.3v4.4h6.2v1.2H132.9z"/>
	<path d="M150.8,147.5l-6.4-9.7v9.7h-1.3v-12.1h1.2l6.4,9.7v-9.7h1.3v12.1H150.8z"/>
	<path d="M163.3,144.9c-0.2,0.5-0.4,0.9-0.8,1.3c-0.4,0.5-0.9,0.8-1.5,1c-0.5,0.2-1.1,0.3-1.8,0.3c-0.6,0-1.2-0.1-1.7-0.3
		c-0.5-0.2-1-0.5-1.4-0.9c-0.3-0.3-0.5-0.6-0.7-0.9c-0.2-0.3-0.3-0.6-0.3-1s-0.1-0.8-0.1-1.3c0-0.5,0-1,0-1.7c0-0.6,0-1.2,0-1.7
		c0-0.5,0.1-0.9,0.1-1.3s0.2-0.7,0.3-1c0.2-0.3,0.4-0.6,0.7-0.9c0.8-0.8,1.9-1.3,3.1-1.3c0.6,0,1.1,0.1,1.6,0.3
		c0.5,0.2,0.9,0.4,1.3,0.7s0.7,0.7,0.9,1.1c0.2,0.4,0.4,0.9,0.5,1.5h-1.3c-0.2-0.8-0.5-1.4-1-1.8s-1.2-0.7-1.9-0.7
		c-0.4,0-0.8,0.1-1.1,0.2c-0.4,0.2-0.7,0.4-0.9,0.6c-0.2,0.2-0.3,0.4-0.5,0.6s-0.2,0.5-0.3,0.8c-0.1,0.3-0.1,0.7-0.1,1.1s0,1,0,1.6
		s0,1.2,0,1.6s0.1,0.8,0.1,1.1c0.1,0.3,0.1,0.6,0.3,0.8s0.3,0.4,0.5,0.6c0.3,0.3,0.6,0.5,0.9,0.6c0.4,0.1,0.8,0.2,1.1,0.2
		c0.4,0,0.9-0.1,1.3-0.3s0.7-0.4,1-0.8c0.2-0.3,0.4-0.6,0.5-1s0.2-0.8,0.2-1.2v-0.9h-3v-1.1h4.3v1.9
		C163.6,143.8,163.5,144.4,163.3,144.9z"/>
	<path d="M173.5,147.5l-2.8-5.4h-2.9v5.4h-1.3v-12.1h4.6c0.5,0,1,0.1,1.4,0.2c0.4,0.2,0.8,0.4,1.1,0.7c0.3,0.3,0.6,0.6,0.7,1.1
		c0.2,0.4,0.3,0.9,0.3,1.4c0,0.9-0.2,1.6-0.7,2.2c-0.5,0.6-1.1,0.9-1.9,1.1l2.9,5.5H173.5z M172.8,137.1c-0.4-0.4-1-0.6-1.7-0.6
		h-3.2v4.4h3.2c0.7,0,1.3-0.2,1.7-0.5c0.4-0.4,0.7-0.9,0.7-1.7S173.3,137.5,172.8,137.1z"/>
	<path d="M184.8,147.5l-1-2.7h-5.3l-1,2.7h-1.4l4.5-12.1h1.1l4.4,12.1H184.8z M181.2,137.3l-2.3,6.4h4.5L181.2,137.3z"/>
	<path d="M190.9,147.5h-1.1l-4-12.1h1.4l3.1,9.8l3.1-9.8h1.4L190.9,147.5z"/>
	<path d="M196.8,147.5v-12.1h7.5v1.2h-6.2v4.3h5.3v1.2h-5.3v4.4h6.2v1.2H196.8z"/>
</g>
<rect x="131.1" y="155.4" class="st3" width="73.6" height="45.5"/>
<g class="st4">
	<path d="M139.9,168.1c-0.2,0.4-0.5,0.8-0.9,1.1c-0.4,0.3-0.8,0.5-1.3,0.7c-0.5,0.2-1.1,0.2-1.7,0.2c-0.9,0-1.7-0.1-2.3-0.4
		c-0.6-0.2-1.3-0.7-1.8-1.2l0.9-0.9c0.5,0.5,1,0.8,1.5,1c0.5,0.2,1.1,0.3,1.8,0.3c0.9,0,1.6-0.2,2.1-0.6c0.5-0.4,0.8-0.9,0.8-1.7
		c0-0.3,0-0.6-0.1-0.9s-0.2-0.5-0.4-0.6c-0.2-0.2-0.4-0.3-0.6-0.4c-0.2-0.1-0.5-0.1-1-0.2l-1.4-0.2c-1-0.2-1.7-0.5-2.2-0.9
		c-0.6-0.5-0.9-1.3-0.9-2.3c0-0.5,0.1-1,0.3-1.4c0.2-0.4,0.4-0.8,0.8-1.1c0.3-0.3,0.7-0.5,1.2-0.7c0.5-0.2,1-0.2,1.6-0.2
		c0.8,0,1.4,0.1,2,0.3s1.1,0.5,1.6,1l-0.8,0.8c-0.4-0.3-0.8-0.6-1.2-0.8s-1-0.3-1.6-0.3c-0.8,0-1.4,0.2-1.9,0.6
		c-0.4,0.4-0.7,1-0.7,1.6c0,0.6,0.2,1.1,0.5,1.4c0.2,0.2,0.4,0.3,0.7,0.4s0.6,0.2,0.9,0.3l1.3,0.2c0.3,0,0.5,0.1,0.8,0.1
		c0.2,0.1,0.4,0.1,0.6,0.2c0.2,0.1,0.3,0.1,0.5,0.2c0.1,0.1,0.3,0.2,0.4,0.3c0.7,0.6,1,1.4,1,2.4
		C140.2,167.1,140.1,167.6,139.9,168.1z"/>
	<path d="M152.9,167.9c-0.2,0.4-0.4,0.8-0.7,1.1s-0.6,0.6-1.1,0.7c-0.4,0.2-0.9,0.3-1.4,0.3c-0.5,0-1-0.1-1.4-0.2
		c-0.4-0.2-0.8-0.4-1.1-0.7c-0.3-0.3-0.5-0.7-0.7-1.1s-0.2-0.9-0.2-1.4c0-0.4,0.1-0.9,0.2-1.3c0.1-0.4,0.3-0.9,0.6-1.4l3-6h1.3
		l-2.7,5.4c0.4-0.2,0.8-0.3,1.3-0.3c0.5,0,0.9,0.1,1.3,0.3s0.7,0.4,1,0.7c0.3,0.3,0.5,0.7,0.6,1.1c0.2,0.4,0.2,0.9,0.2,1.4
		C153.2,167,153.1,167.4,152.9,167.9z M151.8,165.6c-0.1-0.3-0.2-0.6-0.4-0.8c-0.2-0.2-0.4-0.4-0.7-0.5c-0.3-0.1-0.6-0.2-0.9-0.2
		c-0.6,0-1.2,0.2-1.5,0.7c-0.4,0.4-0.6,1-0.6,1.8s0.2,1.3,0.6,1.8c0.4,0.4,0.9,0.7,1.5,0.7s1.2-0.2,1.6-0.7c0.4-0.4,0.6-1,0.6-1.8
		C151.9,166.2,151.9,165.9,151.8,165.6z"/>
	<path d="M161.7,168.1c-0.2,0.4-0.4,0.8-0.7,1.1c-0.3,0.3-0.6,0.5-1,0.7c-0.4,0.2-0.8,0.2-1.3,0.2s-0.9-0.1-1.3-0.2
		c-0.4-0.2-0.8-0.4-1-0.7c-0.3-0.3-0.5-0.6-0.7-1.1s-0.3-0.9-0.3-1.4v-5.6c0-0.5,0.1-1,0.3-1.4c0.2-0.4,0.4-0.8,0.7-1.1
		c0.3-0.3,0.6-0.5,1-0.7c0.4-0.2,0.8-0.2,1.3-0.2s0.9,0.1,1.3,0.2c0.4,0.2,0.8,0.4,1,0.7c0.3,0.3,0.5,0.6,0.7,1.1
		c0.2,0.4,0.3,0.9,0.3,1.4v5.6C162,167.2,161.9,167.7,161.7,168.1z M160.7,161.1c0-0.7-0.2-1.2-0.5-1.7c-0.4-0.4-0.9-0.7-1.6-0.7
		s-1.2,0.2-1.6,0.7c-0.4,0.4-0.5,1-0.5,1.7v5.5c0,0.7,0.2,1.2,0.5,1.7c0.4,0.4,0.9,0.7,1.6,0.7s1.2-0.2,1.6-0.7
		c0.4-0.4,0.5-1,0.5-1.7V161.1z"/>
	<path d="M170.6,168.1c-0.2,0.4-0.4,0.8-0.7,1.1c-0.3,0.3-0.6,0.5-1,0.7c-0.4,0.2-0.8,0.2-1.3,0.2s-0.9-0.1-1.3-0.2
		c-0.4-0.2-0.8-0.4-1-0.7c-0.3-0.3-0.5-0.6-0.7-1.1s-0.3-0.9-0.3-1.4v-5.6c0-0.5,0.1-1,0.3-1.4c0.2-0.4,0.4-0.8,0.7-1.1
		c0.3-0.3,0.6-0.5,1-0.7c0.4-0.2,0.8-0.2,1.3-0.2s0.9,0.1,1.3,0.2c0.4,0.2,0.8,0.4,1,0.7c0.3,0.3,0.5,0.6,0.7,1.1
		c0.2,0.4,0.3,0.9,0.3,1.4v5.6C170.8,167.2,170.8,167.7,170.6,168.1z M169.6,161.1c0-0.7-0.2-1.2-0.5-1.7c-0.4-0.4-0.9-0.7-1.6-0.7
		s-1.2,0.2-1.6,0.7c-0.4,0.4-0.5,1-0.5,1.7v5.5c0,0.7,0.2,1.2,0.5,1.7c0.4,0.4,0.9,0.7,1.6,0.7s1.2-0.2,1.6-0.7
		c0.4-0.4,0.5-1,0.5-1.7V161.1z"/>
</g>
<g class="st4">
	<path d="M140.8,182.9c-0.2,0.4-0.4,0.8-0.8,1.1c-0.3,0.3-0.7,0.5-1.2,0.7s-1,0.3-1.5,0.3h-3.2v5h-1.3v-12.1h4.5
		c0.6,0,1.1,0.1,1.5,0.2s0.9,0.4,1.2,0.7s0.6,0.7,0.8,1.1c0.2,0.4,0.3,0.9,0.3,1.5S141,182.4,140.8,182.9z M139.1,179.6
		c-0.5-0.4-1.1-0.6-1.9-0.6h-3.1v4.8h3.1c0.8,0,1.4-0.2,1.9-0.6c0.5-0.4,0.7-1,0.7-1.8S139.6,180,139.1,179.6z"/>
	<path d="M152.8,188v1.9h-1.2V188h-4.8v-1.1l4.4-9.1h1.3l-4.4,9.1l3.5,0v-3.4h1.2v3.4h1.5v1.1H152.8z"/>
	<path d="M162.4,188.1c-0.2,0.4-0.4,0.8-0.7,1.1c-0.3,0.3-0.6,0.5-1,0.7c-0.4,0.2-0.8,0.2-1.3,0.2s-0.9-0.1-1.3-0.2
		c-0.4-0.2-0.8-0.4-1-0.7c-0.3-0.3-0.5-0.6-0.7-1.1s-0.3-0.9-0.3-1.4v-5.6c0-0.5,0.1-1,0.3-1.4c0.2-0.4,0.4-0.8,0.7-1.1
		c0.3-0.3,0.6-0.5,1-0.7c0.4-0.2,0.8-0.2,1.3-0.2s0.9,0.1,1.3,0.2c0.4,0.2,0.8,0.4,1,0.7c0.3,0.3,0.5,0.6,0.7,1.1
		c0.2,0.4,0.3,0.9,0.3,1.4v5.6C162.7,187.2,162.6,187.7,162.4,188.1z M161.5,181.1c0-0.7-0.2-1.2-0.5-1.7c-0.4-0.4-0.9-0.7-1.6-0.7
		s-1.2,0.2-1.6,0.7c-0.4,0.4-0.5,1-0.5,1.7v5.5c0,0.7,0.2,1.2,0.5,1.7c0.4,0.4,0.9,0.7,1.6,0.7s1.2-0.2,1.6-0.7
		c0.4-0.4,0.5-1,0.5-1.7V181.1z"/>
</g>
<rect x="256.4" y="133.2" class="st3" width="59.2" height="20.3"/>
<g class="st4">
	<path d="M265.1,145.9c-0.2,0.4-0.5,0.8-0.9,1.1c-0.4,0.3-0.8,0.5-1.3,0.7c-0.5,0.2-1.1,0.2-1.7,0.2c-0.9,0-1.7-0.1-2.3-0.4
		c-0.6-0.2-1.3-0.7-1.8-1.2l0.9-0.9c0.5,0.5,1,0.8,1.5,1s1.1,0.3,1.8,0.3c0.9,0,1.6-0.2,2.1-0.6c0.5-0.4,0.8-0.9,0.8-1.7
		c0-0.3,0-0.6-0.1-0.9c-0.1-0.3-0.2-0.5-0.4-0.6c-0.2-0.2-0.4-0.3-0.6-0.4c-0.2-0.1-0.5-0.1-1-0.2l-1.4-0.2c-1-0.2-1.7-0.5-2.2-0.9
		c-0.6-0.5-0.9-1.3-0.9-2.3c0-0.5,0.1-1,0.3-1.4c0.2-0.4,0.4-0.8,0.8-1.1c0.3-0.3,0.7-0.5,1.2-0.7c0.5-0.2,1-0.2,1.6-0.2
		c0.8,0,1.4,0.1,2,0.3c0.6,0.2,1.1,0.5,1.6,1l-0.8,0.8c-0.4-0.3-0.8-0.6-1.2-0.8s-1-0.3-1.6-0.3c-0.8,0-1.4,0.2-1.9,0.6
		c-0.4,0.4-0.7,1-0.7,1.6c0,0.6,0.2,1.1,0.5,1.4c0.2,0.2,0.4,0.3,0.7,0.4s0.6,0.2,0.9,0.3l1.3,0.2c0.3,0,0.5,0.1,0.8,0.1
		c0.2,0.1,0.4,0.1,0.6,0.2c0.2,0.1,0.3,0.1,0.5,0.2c0.1,0.1,0.3,0.2,0.4,0.3c0.7,0.6,1,1.4,1,2.4C265.4,145,265.3,145.4,265.1,145.9
		z"/>
	<path d="M275.6,145.8c-0.2,0.4-0.5,0.8-0.9,1.1c-0.4,0.3-0.8,0.5-1.2,0.7s-1,0.2-1.5,0.2c-0.6,0-1.2-0.1-1.7-0.3
		c-0.5-0.2-1-0.5-1.4-0.9c-0.3-0.3-0.5-0.6-0.7-0.9c-0.2-0.3-0.3-0.6-0.3-1c-0.1-0.4-0.1-0.8-0.1-1.3c0-0.5,0-1,0-1.7
		c0-0.6,0-1.2,0-1.7c0-0.5,0.1-0.9,0.1-1.3c0.1-0.4,0.2-0.7,0.3-1c0.2-0.3,0.4-0.6,0.7-0.9c0.4-0.4,0.9-0.7,1.4-0.9
		c0.5-0.2,1.1-0.3,1.7-0.3c0.5,0,1,0.1,1.5,0.2c0.5,0.2,0.9,0.4,1.2,0.7c0.4,0.3,0.7,0.7,0.9,1.1c0.2,0.4,0.4,1,0.5,1.5h-1.3
		c-0.2-0.7-0.5-1.3-1-1.8c-0.5-0.4-1.1-0.7-1.9-0.7c-0.4,0-0.8,0.1-1.1,0.2s-0.7,0.4-0.9,0.6c-0.2,0.2-0.3,0.4-0.5,0.6
		c-0.1,0.2-0.2,0.5-0.3,0.8c-0.1,0.3-0.1,0.7-0.1,1.1c0,0.4,0,1,0,1.6s0,1.2,0,1.6c0,0.4,0.1,0.8,0.1,1.1c0.1,0.3,0.1,0.6,0.3,0.8
		s0.3,0.4,0.5,0.6c0.3,0.3,0.6,0.5,0.9,0.6c0.4,0.1,0.8,0.2,1.1,0.2c0.8,0,1.4-0.2,1.9-0.7c0.5-0.4,0.8-1,1-1.8h1.3
		C276,144.8,275.8,145.3,275.6,145.8z"/>
	<path d="M286.9,143.4c0,0.5-0.1,0.9-0.1,1.3c-0.1,0.4-0.2,0.7-0.3,1c-0.2,0.3-0.4,0.6-0.7,0.9c-0.4,0.4-0.9,0.7-1.4,0.9
		c-0.5,0.2-1.1,0.3-1.7,0.3c-1.2,0-2.3-0.4-3.1-1.3c-0.3-0.3-0.5-0.6-0.7-0.9s-0.3-0.6-0.3-1c-0.1-0.4-0.1-0.8-0.1-1.3s0-1,0-1.7
		c0-0.6,0-1.2,0-1.7s0.1-0.9,0.1-1.3c0.1-0.4,0.2-0.7,0.3-1c0.2-0.3,0.4-0.6,0.7-0.9c0.8-0.8,1.9-1.3,3.1-1.3c1.2,0,2.3,0.4,3.1,1.3
		c0.3,0.3,0.5,0.6,0.7,0.9c0.2,0.3,0.3,0.6,0.3,1c0.1,0.4,0.1,0.8,0.1,1.3c0,0.5,0,1,0,1.7C286.9,142.4,286.9,142.9,286.9,143.4z
		 M285.6,140.1c0-0.4-0.1-0.8-0.1-1.1c-0.1-0.3-0.1-0.6-0.3-0.8c-0.1-0.2-0.3-0.4-0.5-0.6c-0.3-0.3-0.6-0.5-0.9-0.6
		c-0.4-0.2-0.8-0.2-1.1-0.2s-0.8,0.1-1.1,0.2c-0.4,0.2-0.7,0.4-0.9,0.6c-0.2,0.2-0.3,0.4-0.5,0.6s-0.2,0.5-0.3,0.8
		c-0.1,0.3-0.1,0.7-0.1,1.1c0,0.4,0,1,0,1.6s0,1.2,0,1.6c0,0.4,0.1,0.8,0.1,1.1s0.1,0.6,0.3,0.8c0.1,0.2,0.3,0.4,0.5,0.6
		c0.3,0.3,0.6,0.5,0.9,0.6c0.4,0.2,0.8,0.2,1.1,0.2s0.8-0.1,1.1-0.2c0.4-0.2,0.7-0.4,0.9-0.6c0.2-0.2,0.3-0.4,0.5-0.6
		c0.1-0.2,0.2-0.5,0.3-0.8c0.1-0.3,0.1-0.7,0.1-1.1c0-0.4,0-1,0-1.6S285.6,140.5,285.6,140.1z"/>
	<path d="M296.9,147.8l-2.8-5.4h-2.9v5.4H290v-12.1h4.6c0.5,0,1,0.1,1.4,0.2c0.4,0.2,0.8,0.4,1.1,0.7s0.6,0.6,0.7,1.1
		c0.2,0.4,0.3,0.9,0.3,1.4c0,0.9-0.2,1.6-0.7,2.2c-0.5,0.6-1.1,0.9-1.9,1.1l2.9,5.5H296.9z M296.2,137.4c-0.4-0.4-1-0.6-1.7-0.6
		h-3.2v4.4h3.2c0.7,0,1.3-0.2,1.7-0.5c0.4-0.4,0.7-0.9,0.7-1.7S296.7,137.7,296.2,137.4z"/>
	<path d="M301.1,147.8v-12.1h7.5v1.2h-6.2v4.3h5.3v1.2h-5.3v4.4h6.2v1.2H301.1z"/>
</g>
<rect x="256.4" y="155.4" class="st3" width="97.4" height="39.1"/>
<g class="st4">
	<path d="M265.1,168.1c-0.2,0.4-0.5,0.8-0.8,1.1c-0.4,0.3-0.8,0.5-1.3,0.7c-0.5,0.2-1.1,0.2-1.7,0.2c-0.9,0-1.7-0.1-2.3-0.4
		c-0.6-0.2-1.3-0.7-1.8-1.2l0.9-0.9c0.5,0.5,1,0.8,1.5,1c0.5,0.2,1.1,0.3,1.8,0.3c0.9,0,1.6-0.2,2.1-0.6c0.5-0.4,0.8-0.9,0.8-1.7
		c0-0.3,0-0.6-0.1-0.9c-0.1-0.3-0.2-0.5-0.4-0.6c-0.2-0.2-0.4-0.3-0.6-0.4c-0.2-0.1-0.5-0.1-1-0.2l-1.4-0.2c-1-0.2-1.7-0.5-2.2-0.9
		c-0.6-0.5-0.9-1.3-0.9-2.3c0-0.5,0.1-1,0.3-1.4s0.4-0.8,0.8-1.1c0.3-0.3,0.7-0.5,1.2-0.7c0.5-0.2,1-0.2,1.6-0.2
		c0.8,0,1.4,0.1,2,0.3c0.6,0.2,1.1,0.5,1.6,1l-0.8,0.8c-0.4-0.3-0.8-0.6-1.2-0.8s-1-0.3-1.6-0.3c-0.8,0-1.4,0.2-1.9,0.6
		c-0.4,0.4-0.7,1-0.7,1.6c0,0.6,0.2,1.1,0.5,1.4c0.2,0.2,0.4,0.3,0.7,0.4s0.6,0.2,0.9,0.3l1.3,0.2c0.3,0,0.5,0.1,0.8,0.1
		s0.4,0.1,0.6,0.2c0.2,0.1,0.3,0.1,0.5,0.2s0.3,0.2,0.4,0.3c0.7,0.6,1,1.4,1,2.4C265.4,167.1,265.3,167.6,265.1,168.1z"/>
	<path d="M277.3,168v1.9h-1.2V168h-4.8v-1.1l4.4-9.1h1.3l-4.4,9.1l3.5,0v-3.4h1.2v3.4h1.5v1.1H277.3z"/>
	<path d="M287,168.1c-0.2,0.4-0.4,0.8-0.7,1.1s-0.6,0.5-1,0.7c-0.4,0.2-0.8,0.2-1.3,0.2c-0.5,0-0.9-0.1-1.3-0.2
		c-0.4-0.2-0.8-0.4-1-0.7c-0.3-0.3-0.5-0.6-0.7-1.1s-0.3-0.9-0.3-1.4v-5.6c0-0.5,0.1-1,0.3-1.4c0.2-0.4,0.4-0.8,0.7-1.1
		c0.3-0.3,0.6-0.5,1-0.7c0.4-0.2,0.8-0.2,1.3-0.2c0.5,0,0.9,0.1,1.3,0.2c0.4,0.2,0.8,0.4,1,0.7s0.5,0.6,0.7,1.1
		c0.2,0.4,0.3,0.9,0.3,1.4v5.6C287.2,167.2,287.1,167.7,287,168.1z M286,161.1c0-0.7-0.2-1.2-0.5-1.7c-0.4-0.4-0.9-0.7-1.6-0.7
		c-0.7,0-1.2,0.2-1.6,0.7c-0.4,0.4-0.5,1-0.5,1.7v5.5c0,0.7,0.2,1.2,0.5,1.7c0.4,0.4,0.9,0.7,1.6,0.7c0.7,0,1.2-0.2,1.6-0.7
		c0.4-0.4,0.5-1,0.5-1.7V161.1z"/>
	<path d="M295.8,168.1c-0.2,0.4-0.4,0.8-0.7,1.1s-0.6,0.5-1,0.7c-0.4,0.2-0.8,0.2-1.3,0.2c-0.5,0-0.9-0.1-1.3-0.2
		c-0.4-0.2-0.8-0.4-1-0.7c-0.3-0.3-0.5-0.6-0.7-1.1s-0.3-0.9-0.3-1.4v-5.6c0-0.5,0.1-1,0.3-1.4c0.2-0.4,0.4-0.8,0.7-1.1
		c0.3-0.3,0.6-0.5,1-0.7c0.4-0.2,0.8-0.2,1.3-0.2c0.5,0,0.9,0.1,1.3,0.2c0.4,0.2,0.8,0.4,1,0.7s0.5,0.6,0.7,1.1
		c0.2,0.4,0.3,0.9,0.3,1.4v5.6C296.1,167.2,296,167.7,295.8,168.1z M294.9,161.1c0-0.7-0.2-1.2-0.5-1.7c-0.4-0.4-0.9-0.7-1.6-0.7
		c-0.7,0-1.2,0.2-1.6,0.7c-0.4,0.4-0.5,1-0.5,1.7v5.5c0,0.7,0.2,1.2,0.5,1.7c0.4,0.4,0.9,0.7,1.6,0.7c0.7,0,1.2-0.2,1.6-0.7
		c0.4-0.4,0.5-1,0.5-1.7V161.1z"/>
</g>
<g class="st4">
	<path d="M266.1,182.9c-0.2,0.4-0.4,0.8-0.8,1.1c-0.3,0.3-0.7,0.5-1.2,0.7s-1,0.3-1.5,0.3h-3.2v5h-1.3v-12.1h4.5
		c0.6,0,1.1,0.1,1.5,0.2s0.9,0.4,1.2,0.7c0.3,0.3,0.6,0.7,0.8,1.1s0.3,0.9,0.3,1.5S266.3,182.4,266.1,182.9z M264.3,179.6
		c-0.5-0.4-1.1-0.6-1.9-0.6h-3.1v4.8h3.1c0.8,0,1.4-0.2,1.9-0.6c0.5-0.4,0.7-1,0.7-1.8S264.8,180,264.3,179.6z"/>
	<path d="M279,187.7c-0.1,0.6-0.4,1-0.8,1.5c-0.3,0.3-0.6,0.5-1,0.7c-0.4,0.2-0.9,0.2-1.4,0.2c-0.5,0-1-0.1-1.4-0.2
		c-0.4-0.2-0.8-0.4-1-0.6c-0.3-0.3-0.5-0.6-0.6-0.9c-0.1-0.4-0.2-0.7-0.3-1.2h1.2c0.1,0.6,0.3,1.1,0.6,1.4c0.3,0.3,0.8,0.5,1.5,0.5
		c0.6,0,1.1-0.2,1.5-0.6c0.2-0.2,0.3-0.3,0.4-0.5c0.1-0.2,0.2-0.4,0.2-0.6c0-0.2,0.1-0.4,0.1-0.7c0-0.2,0-0.4,0-0.7
		c0-0.4,0-0.7-0.1-1.1s-0.1-0.7-0.3-0.9c-0.1-0.3-0.3-0.5-0.6-0.7c-0.3-0.2-0.6-0.3-1.1-0.3c-0.5,0-1,0.1-1.3,0.3
		c-0.3,0.2-0.6,0.5-0.7,0.9h-1.1v-6.4h6.1v1.1h-5v3.8c0.2-0.3,0.5-0.5,0.9-0.6c0.4-0.1,0.8-0.2,1.3-0.2c0.5,0,0.9,0.1,1.2,0.2
		c0.4,0.1,0.6,0.3,0.9,0.6c0.2,0.2,0.4,0.5,0.5,0.7c0.1,0.3,0.2,0.5,0.3,0.8c0.1,0.3,0.1,0.6,0.1,0.9c0,0.3,0,0.6,0,0.9
		C279.2,186.6,279.1,187.1,279,187.7z"/>
	<path d="M287.7,188.1c-0.2,0.4-0.4,0.8-0.7,1.1s-0.6,0.5-1,0.7c-0.4,0.2-0.8,0.2-1.3,0.2c-0.5,0-0.9-0.1-1.3-0.2
		c-0.4-0.2-0.8-0.4-1-0.7c-0.3-0.3-0.5-0.6-0.7-1.1s-0.3-0.9-0.3-1.4v-5.6c0-0.5,0.1-1,0.3-1.4c0.2-0.4,0.4-0.8,0.7-1.1
		c0.3-0.3,0.6-0.5,1-0.7c0.4-0.2,0.8-0.2,1.3-0.2c0.5,0,0.9,0.1,1.3,0.2c0.4,0.2,0.8,0.4,1,0.7s0.5,0.6,0.7,1.1
		c0.2,0.4,0.3,0.9,0.3,1.4v5.6C287.9,187.2,287.8,187.7,287.7,188.1z M286.7,181.1c0-0.7-0.2-1.2-0.5-1.7c-0.4-0.4-0.9-0.7-1.6-0.7
		c-0.7,0-1.2,0.2-1.6,0.7c-0.4,0.4-0.5,1-0.5,1.7v5.5c0,0.7,0.2,1.2,0.5,1.7c0.4,0.4,0.9,0.7,1.6,0.7c0.7,0,1.2-0.2,1.6-0.7
		c0.4-0.4,0.5-1,0.5-1.7V181.1z"/>
</g>
<path class="st1" d="M338,235.8H21.8c-6.6,0-12-5.4-12-12V21c0-6.6,5.4-12,12-12H338c6.6,0,12,5.4,12,12v202.8
	C350,230.4,344.6,235.8,338,235.8z"/>
</svg>
