<?xml version="1.0" encoding="utf-8"?>
<!-- Generator: Adobe Illustrator 22.0.1, SVG Export Plug-In . SVG Version: 6.00 Build 0)  -->
<svg version="1.1" id="图层_1" xmlns="http://www.w3.org/2000/svg" xmlns:xlink="http://www.w3.org/1999/xlink" x="0px" y="0px"
	 viewBox="0 0 401.3 271.1" style="enable-background:new 0 0 401.3 271.1;" xml:space="preserve">
<style type="text/css">
	.st0{fill:none;stroke:#31006F;stroke-miterlimit:10;}
	.st1{fill:none;stroke:#000000;stroke-miterlimit:10;}
	.st2{fill:#040000;}
</style>
<g>
	<path d="M277.1,61.1h7.3v24.4h-4.7V69c0-0.5,0-1.1,0-2c0-0.9,0-1.5,0-2l-4.6,20.4h-4.9L265.6,65c0,0.5,0,1.1,0,2c0,0.9,0,1.5,0,2
		v16.5h-4.7V61.1h7.4l4.4,19.2L277.1,61.1z"/>
	<path d="M289.3,61.1h5v10l9.4-10h6.6l-10,10l10.5,14.3h-6.5l-7.5-10.6l-2.5,2.5v8.1h-5V61.1z"/>
	<path d="M329.2,61.7c0.9,0.4,1.7,1,2.3,1.7c0.5,0.6,0.9,1.3,1.2,2c0.3,0.7,0.5,1.6,0.5,2.6c0,1.2-0.3,2.3-0.9,3.4
		c-0.6,1.1-1.5,1.9-2.9,2.4c1.1,0.5,1.9,1.1,2.4,1.9c0.5,0.8,0.7,2.1,0.7,3.8v1.6c0,1.1,0,1.9,0.1,2.3c0.1,0.6,0.4,1.1,0.9,1.4v0.6
		H328c-0.2-0.5-0.3-1-0.3-1.3c-0.1-0.7-0.2-1.4-0.2-2.1l0-2.3c0-1.6-0.3-2.6-0.8-3.1c-0.5-0.5-1.5-0.8-2.9-0.8h-5v9.6h-5V61.1h11.6
		C327.1,61.1,328.3,61.4,329.2,61.7z M318.7,65.3v6.5h5.5c1.1,0,1.9-0.1,2.4-0.4c1-0.5,1.4-1.4,1.4-2.7c0-1.5-0.5-2.5-1.4-3
		c-0.5-0.3-1.3-0.4-2.4-0.4H318.7z"/>
	<path d="M264.7,111.8c0.2,1.1,0.5,1.9,0.9,2.5c0.8,1,2.3,1.5,4.3,1.5c1.2,0,2.2-0.1,3-0.4c1.5-0.5,2.2-1.4,2.2-2.8
		c0-0.8-0.4-1.4-1.1-1.9c-0.7-0.4-1.8-0.8-3.4-1.1L268,109c-2.6-0.6-4.4-1.2-5.3-1.9c-1.6-1.1-2.5-2.9-2.5-5.3c0-2.2,0.8-4,2.4-5.4
		c1.6-1.4,4-2.2,7.1-2.2c2.6,0,4.8,0.7,6.6,2c1.8,1.4,2.8,3.3,2.9,5.9h-4.9c-0.1-1.5-0.7-2.5-2-3.1c-0.8-0.4-1.8-0.6-3-0.6
		c-1.3,0-2.4,0.3-3.2,0.8c-0.8,0.5-1.2,1.3-1.2,2.2c0,0.9,0.4,1.5,1.2,1.9c0.5,0.3,1.6,0.6,3.2,1l4.3,1c1.9,0.4,3.3,1,4.2,1.8
		c1.5,1.1,2.2,2.8,2.2,5c0,2.2-0.9,4.1-2.6,5.5c-1.7,1.5-4.2,2.2-7.3,2.2c-3.2,0-5.7-0.7-7.6-2.2c-1.8-1.4-2.8-3.4-2.8-6H264.7z"/>
	<path d="M299.9,108.8c-1.4,1.2-3.5,1.8-6.1,1.8h-5.1v8.8h-5.1V95h10.5c2.4,0,4.3,0.6,5.8,1.9c1.4,1.3,2.2,3.2,2.2,5.8
		C302.1,105.5,301.3,107.6,299.9,108.8z M296,100c-0.6-0.5-1.5-0.8-2.7-0.8h-4.6v7.2h4.6c1.2,0,2.1-0.3,2.7-0.9c0.6-0.6,1-1.5,1-2.8
		C297,101.4,296.7,100.5,296,100z"/>
	<path d="M308.5,97.5c2-2,4.5-3,7.5-3c4.1,0,7,1.3,8.9,4c1,1.5,1.6,3,1.7,4.5h-5.1c-0.3-1.2-0.7-2-1.2-2.6c-0.9-1.1-2.3-1.6-4-1.6
		c-1.8,0-3.2,0.7-4.3,2.2c-1,1.5-1.6,3.6-1.6,6.3c0,2.7,0.6,4.8,1.7,6.1c1.1,1.4,2.5,2,4.2,2c1.7,0,3.1-0.6,4-1.8
		c0.5-0.6,0.9-1.6,1.3-2.8h5.1c-0.4,2.7-1.6,4.8-3.3,6.5s-4.1,2.5-6.9,2.5c-3.5,0-6.2-1.1-8.2-3.4c-2-2.3-3-5.4-3-9.3
		C305.1,103.1,306.2,99.8,308.5,97.5z"/>
</g>
<polygon class="st0" points="25,59.8 25,70.5 31.8,70.5 43.7,118.3 60.3,118.3 68.3,88.4 75.9,118.3 92.6,118.3 105.2,70.5 
	111.6,70.5 111.6,59.8 88.6,59.8 88.6,70.5 96.2,70.5 88,101.6 77.7,59.8 67.1,59.8 55.9,101.9 47.8,70.5 56.1,70.5 56.1,59.8 
	25,59.8 "/>
<g>
	<g>
		<path d="M30,223.6c-1.7,0-2.9-0.4-4-1.5l0.8-0.8c1,1,1.9,1.3,3.1,1.3c1.7,0,2.7-0.8,2.7-2.1c0-0.6-0.2-1.1-0.6-1.4
			c-0.4-0.3-0.7-0.4-1.5-0.6l-1.3-0.2c-0.9-0.1-1.6-0.4-2.1-0.9c-0.6-0.5-0.9-1.2-0.9-2.2c0-2,1.4-3.3,3.7-3.3
			c1.5,0,2.5,0.4,3.4,1.3l-0.8,0.8c-0.7-0.6-1.5-1-2.7-1c-1.5,0-2.4,0.9-2.4,2.1c0,0.6,0.2,1,0.5,1.3c0.4,0.3,1,0.5,1.6,0.6l1.3,0.2
			c1.1,0.2,1.6,0.4,2.1,0.8c0.6,0.5,1,1.3,1,2.3C34,222.3,32.4,223.6,30,223.6z"/>
	</g>
	<g>
		<path d="M39.8,218.3v-1.1h6.8v1.1H39.8z M39.8,221v-1.1h6.8v1.1H39.8z"/>
	</g>
	<g>
		<path d="M56.1,223.6c-1.7,0-2.9-0.4-4-1.5l0.8-0.8c1,1,1.9,1.3,3.1,1.3c1.7,0,2.7-0.8,2.7-2.1c0-0.6-0.2-1.1-0.6-1.4
			c-0.4-0.3-0.7-0.4-1.5-0.6l-1.3-0.2c-0.9-0.1-1.6-0.4-2.1-0.9c-0.6-0.5-0.9-1.2-0.9-2.2c0-2,1.4-3.3,3.7-3.3
			c1.5,0,2.5,0.4,3.4,1.3l-0.8,0.8c-0.7-0.6-1.5-1-2.7-1c-1.5,0-2.4,0.9-2.4,2.1c0,0.6,0.2,1,0.5,1.3c0.4,0.3,1,0.5,1.6,0.6l1.3,0.2
			c1.1,0.2,1.6,0.4,2.1,0.8c0.6,0.5,1,1.3,1,2.3C60.1,222.3,58.5,223.6,56.1,223.6z"/>
	</g>
	<g>
		<path d="M67.8,222.9c-0.4,0.4-1.1,0.7-1.9,0.7c-0.9,0-1.6-0.2-2.3-1v4.5h-1.2v-11.6h1.2v0.9c0.6-0.8,1.4-1,2.3-1
			c0.8,0,1.5,0.3,1.9,0.7c0.8,0.8,1,2.1,1,3.4C68.8,220.7,68.7,222,67.8,222.9z M65.6,216.4c-1.7,0-2,1.5-2,3.1c0,1.6,0.3,3.1,2,3.1
			s2-1.5,2-3.1C67.6,217.9,67.4,216.4,65.6,216.4z"/>
	</g>
	<g>
		<path d="M72,219.8c0,1.8,0.8,2.8,2.4,2.8c0.9,0,1.5-0.3,2.1-0.9l0.8,0.7c-0.8,0.8-1.6,1.2-2.9,1.2c-2.1,0-3.5-1.3-3.5-4.1
			c0-2.6,1.3-4.1,3.3-4.1c2.1,0,3.3,1.5,3.3,3.9v0.5H72z M76,217.6c-0.3-0.7-1-1.2-1.9-1.2c-0.8,0-1.6,0.5-1.9,1.2
			c-0.2,0.4-0.2,0.7-0.2,1.3h4.2C76.2,218.2,76.2,218,76,217.6z"/>
	</g>
	<g>
		<path d="M80.7,219.8c0,1.8,0.8,2.8,2.4,2.8c0.9,0,1.5-0.3,2.1-0.9l0.8,0.7c-0.8,0.8-1.6,1.2-2.9,1.2c-2.1,0-3.5-1.3-3.5-4.1
			c0-2.6,1.3-4.1,3.3-4.1c2.1,0,3.3,1.5,3.3,3.9v0.5H80.7z M84.6,217.6c-0.3-0.7-1-1.2-1.9-1.2s-1.6,0.5-1.9,1.2
			c-0.2,0.4-0.2,0.7-0.2,1.3h4.2C84.8,218.2,84.8,218,84.6,217.6z"/>
	</g>
	<g>
		<path d="M93.3,223.5v-1c-0.6,0.8-1.4,1.1-2.3,1.1c-0.8,0-1.5-0.3-1.9-0.7c-0.8-0.8-1-2.1-1-3.4c0-1.3,0.2-2.6,1-3.4
			c0.4-0.4,1.1-0.7,1.9-0.7c0.9,0,1.6,0.2,2.3,1v-4.5h1.2v11.6H93.3z M91.3,216.4c-1.7,0-2,1.5-2,3.1c0,1.6,0.3,3.1,2,3.1
			s2-1.5,2-3.1C93.3,217.9,93,216.4,91.3,216.4z"/>
	</g>
	<g>
		<path d="M97.4,225.8V222h1.4v2.5L97.4,225.8z"/>
	</g>
	<g>
		<path d="M110.2,218.7h-3.1v4.8h-1.2v-11.6h4.3c2.1,0,3.6,1.3,3.6,3.4S112.3,218.7,110.2,218.7z M110.1,213h-3v4.6h3
			c1.4,0,2.5-0.8,2.5-2.3C112.6,213.8,111.6,213,110.1,213z"/>
	</g>
	<g>
		<path d="M115.3,218.3v-1.1h6.8v1.1H115.3z M115.3,221v-1.1h6.8v1.1H115.3z"/>
	</g>
	<g>
		<path d="M128.9,218.7h-3.1v4.8h-1.2v-11.6h4.3c2.1,0,3.6,1.3,3.6,3.4S131.1,218.7,128.9,218.7z M128.8,213h-3v4.6h3
			c1.4,0,2.5-0.8,2.5-2.3C131.3,213.8,130.3,213,128.8,213z"/>
	</g>
	<g>
		<path d="M139.6,222.6c-0.6,0.6-1.3,0.9-2.3,0.9c-1,0-1.7-0.4-2.3-0.9c-0.8-0.8-1-1.9-1-3.2c0-1.2,0.2-2.4,1-3.2
			c0.6-0.6,1.3-0.9,2.3-0.9c1,0,1.7,0.4,2.3,0.9c0.8,0.8,1,1.9,1,3.2C140.6,220.7,140.4,221.8,139.6,222.6z M138.8,217
			c-0.4-0.4-0.9-0.6-1.5-0.6c-0.6,0-1.1,0.2-1.4,0.6c-0.6,0.6-0.6,1.6-0.6,2.5c0,0.9,0.1,1.9,0.6,2.5c0.4,0.4,0.9,0.6,1.4,0.6
			c0.6,0,1.1-0.2,1.5-0.6c0.6-0.6,0.6-1.6,0.6-2.5C139.4,218.6,139.4,217.6,138.8,217z"/>
	</g>
	<g>
		<path d="M150.6,223.5h-1.1l-2.1-6.2l-2.1,6.2h-1.1l-2.5-8h1.3l1.8,6.4l2.1-6.4h1l2.1,6.4l1.8-6.4h1.3L150.6,223.5z"/>
	</g>
	<g>
		<path d="M155.4,219.8c0,1.8,0.8,2.8,2.4,2.8c0.9,0,1.5-0.3,2.1-0.9l0.8,0.7c-0.8,0.8-1.6,1.2-2.9,1.2c-2.1,0-3.5-1.3-3.5-4.1
			c0-2.6,1.2-4.1,3.3-4.1c2.1,0,3.3,1.5,3.3,3.9v0.5H155.4z M159.4,217.6c-0.3-0.7-1-1.2-1.9-1.2c-0.8,0-1.6,0.5-1.9,1.2
			c-0.2,0.4-0.2,0.7-0.2,1.3h4.2C159.6,218.2,159.6,218,159.4,217.6z"/>
	</g>
	<g>
		<path d="M167.8,217c-0.4-0.4-0.8-0.6-1.4-0.6c-1.2,0-1.9,0.9-1.9,2.1v4.9h-1.2v-8h1.2v1c0.4-0.7,1.3-1.1,2.2-1.1
			c0.8,0,1.3,0.2,1.9,0.7L167.8,217z"/>
	</g>
</g>
<circle class="st1" cx="328.6" cy="28.7" r="7.1"/>
<path class="st2" d="M196.4,87.9l14.5-16.6l-22.6-0.1l-3.9,4.3l-18.8-19.1H142l29.8,32.3l-30.9,32.6h25.9l17.2-19.4l4,4.3h26.3
	L196.4,87.9z M183.9,102.1l-11.8-13.1l12.4-13.2l12,12.4L183.9,102.1z"/>
<g>
	<path d="M27,36.2c-1.2,0-2.3-0.4-3.1-1.3c-1.1-1.1-1.1-2.3-1.1-4.9c0-2.6,0-3.8,1.1-4.9c0.8-0.8,1.9-1.3,3.1-1.3
		c2.2,0,3.8,1.3,4.2,3.6h-1.3c-0.3-1.5-1.4-2.4-2.9-2.4c-0.8,0-1.6,0.3-2.1,0.8c-0.8,0.8-0.8,1.6-0.8,4.1c0,2.5,0.1,3.4,0.8,4.1
		c0.5,0.5,1.3,0.9,2.1,0.9c1.5,0,2.6-1,2.9-2.4h1.3C30.8,34.9,29.2,36.2,27,36.2z"/>
	<path d="M41.1,36.1v-5.5h-5.7v5.5h-1.3V24h1.3v5.4h5.7V24h1.3v12.1H41.1z"/>
	<path d="M45.9,36.1V24h1.3v12.1H45.9z"/>
	<path d="M55.2,31.2H52v5h-1.3V24h4.5c2.2,0,3.7,1.4,3.7,3.6S57.4,31.2,55.2,31.2z M55.1,25.2H52V30h3.1c1.5,0,2.6-0.8,2.6-2.4
		C57.7,26,56.6,25.2,55.1,25.2z"/>
	<path d="M66.1,36.1h-4.7V24H66c2.1,0,3.6,1.2,3.6,3.2c0,1.3-0.8,2.3-1.8,2.7c1.2,0.4,2,1.4,2,2.9C69.7,35,68.3,36.1,66.1,36.1z
		 M65.9,25.2h-3.2v4.2h3.2c1.3,0,2.4-0.7,2.4-2.1C68.3,25.8,67.2,25.2,65.9,25.2z M66,30.5h-3.3V35H66c1.5,0,2.4-0.9,2.4-2.2
		C68.4,31.4,67.5,30.5,66,30.5z"/>
	<path d="M79.6,35c-0.8,0.8-1.9,1.3-3.1,1.3s-2.3-0.4-3.1-1.3c-1.1-1.1-1.1-2.3-1.1-4.9c0-2.6,0-3.8,1.1-4.9
		c0.8-0.8,1.9-1.3,3.1-1.3s2.3,0.4,3.1,1.3c1.1,1.1,1.1,2.3,1.1,4.9C80.8,32.7,80.8,33.8,79.6,35z M78.6,26
		c-0.5-0.5-1.3-0.9-2.1-0.9S75,25.4,74.5,26c-0.8,0.8-0.9,1.6-0.9,4.1c0,2.5,0.1,3.3,0.9,4.1c0.5,0.5,1.3,0.9,2.1,0.9
		s1.6-0.3,2.1-0.9c0.8-0.8,0.9-1.6,0.9-4.1C79.5,27.6,79.4,26.7,78.6,26z"/>
	<path d="M90.7,36.1l-1-2.7h-5.3l-1,2.7h-1.4L86.6,24h1.1l4.4,12.1H90.7z M87.1,25.9l-2.3,6.4h4.5L87.1,25.9z"/>
	<path d="M101,36.1l-2.8-5.4h-2.9v5.4H94V24h4.6c2.1,0,3.6,1.3,3.6,3.4c0,1.8-1.1,2.9-2.6,3.2l2.9,5.5H101z M98.6,25.2h-3.2v4.4h3.2
		c1.4,0,2.4-0.7,2.4-2.2C101,25.9,100,25.2,98.6,25.2z"/>
	<path d="M112.4,35c-0.7,0.7-1.8,1.1-3.1,1.1h-4.1V24h4.1c1.3,0,2.3,0.4,3.1,1.1c1.3,1.3,1.2,3.1,1.2,4.8S113.7,33.8,112.4,35z
		 M111.5,26.1c-0.6-0.6-1.4-0.9-2.4-0.9h-2.6V35h2.6c0.9,0,1.8-0.2,2.4-0.9c0.8-0.9,0.8-2.7,0.8-4.1S112.3,26.9,111.5,26.1z"/>
</g>
<g>
	<path d="M148,36.2c-1.9,0-3.3-1.3-3.3-3.3v-5.6c0-2,1.4-3.3,3.3-3.3s3.3,1.3,3.3,3.3v5.6C151.3,34.9,149.9,36.2,148,36.2z
		 M150.1,27.3c0-1.3-0.7-2.3-2.1-2.3s-2.1,1-2.1,2.3v5.5c0,1.3,0.7,2.3,2.1,2.3s2.1-1,2.1-2.3V27.3z"/>
	<path d="M153.9,36.1v-1.6h1.6v1.6H153.9z"/>
	<path d="M160.8,36.1h-1.3l4.2-11h-4.2V27h-1.2v-3h6.7v1.1L160.8,36.1z"/>
	<path d="M170.4,36.2c-2.1,0-3.4-1.4-3.4-3.5c0-0.9,0.3-1.7,0.8-2.7l3-6h1.3l-2.7,5.4c0.4-0.2,0.8-0.3,1.3-0.3
		c1.9,0,3.1,1.4,3.1,3.4C173.7,34.7,172.4,36.2,170.4,36.2z M170.4,30.3c-1.3,0-2.1,1-2.1,2.4c0,1.5,0.8,2.4,2.1,2.4s2.1-1,2.1-2.4
		C172.5,31.4,171.8,30.3,170.4,30.3z"/>
	<path d="M175.9,36.1v-1.1l4.8-6.1c0.5-0.6,0.7-1.1,0.7-1.8c0-1.3-0.8-2.2-2.1-2.2c-1.1,0-2.1,0.6-2.1,2.2H176
		c0-1.9,1.3-3.3,3.3-3.3c2,0,3.3,1.3,3.3,3.3c0,1-0.3,1.6-1,2.4l-4.2,5.4h5.2v1.1H175.9z"/>
	<path d="M195.9,36.1V31c0-1.5-0.8-2.2-2.1-2.2c-1.2,0-2.1,0.8-2.1,2.1v5.3h-1.2V31c0-1.5-0.8-2.2-2.1-2.2s-2.1,0.8-2.1,2.2v5.2
		h-1.2v-8.4h1.2v0.9c0.6-0.7,1.4-1,2.4-1c1.2,0,2.1,0.5,2.6,1.4c0.6-0.9,1.6-1.4,2.8-1.4c0.9,0,1.6,0.3,2.2,0.8
		c0.6,0.6,0.9,1.4,0.9,2.3v5.4H195.9z"/>
	<path d="M210.9,36.1V31c0-1.5-0.8-2.2-2.1-2.2c-1.2,0-2.1,0.8-2.1,2.1v5.3h-1.2V31c0-1.5-0.8-2.2-2.1-2.2c-1.3,0-2.1,0.8-2.1,2.2
		v5.2h-1.2v-8.4h1.2v0.9c0.6-0.7,1.4-1,2.4-1c1.2,0,2.1,0.5,2.6,1.4c0.6-0.9,1.6-1.4,2.8-1.4c0.9,0,1.6,0.3,2.2,0.8
		c0.6,0.6,0.9,1.4,0.9,2.3v5.4H210.9z"/>
	<path d="M219,37.4h-1.2l4.8-14.6h1.2L219,37.4z"/>
	<path d="M232.5,36.2c-1.9,0-3.3-1.3-3.3-3.3v-5.6c0-2,1.4-3.3,3.3-3.3s3.3,1.3,3.3,3.3v5.6C235.8,34.9,234.4,36.2,232.5,36.2z
		 M234.6,27.3c0-1.3-0.7-2.3-2.1-2.3s-2.1,1-2.1,2.3v5.5c0,1.3,0.7,2.3,2.1,2.3s2.1-1,2.1-2.3V27.3z"/>
	<path d="M238.4,36.1v-1.6h1.6v1.6H238.4z"/>
	<path d="M245.9,36.2c-1.9,0-3.3-1.3-3.3-3.3v-5.6c0-2,1.4-3.3,3.3-3.3s3.3,1.3,3.3,3.3v5.6C249.3,34.9,247.8,36.2,245.9,36.2z
		 M248,27.3c0-1.3-0.7-2.3-2.1-2.3s-2.1,1-2.1,2.3v5.5c0,1.3,0.7,2.3,2.1,2.3s2.1-1,2.1-2.3V27.3z"/>
	<path d="M254.6,36.3c-1.9,0-3.5-1-3.6-3.2h1.2c0.1,1.5,1.2,2.1,2.3,2.1c1.3,0,2.3-0.9,2.3-2.3c0-1.5-0.7-2.3-2.4-2.3h-0.3v-1.1h0.3
		c1.5,0,2.2-0.8,2.2-2.2c0-1.4-0.9-2.2-2.1-2.2c-1.3,0-2.1,0.8-2.2,2h-1.2c0.1-2,1.6-3.1,3.4-3.1c2,0,3.3,1.3,3.3,3.3
		c0,1.3-0.5,2.2-1.6,2.7c1.2,0.5,1.9,1.4,1.9,3C258.2,35.1,256.6,36.3,254.6,36.3z"/>
	<path d="M260.7,25.4V24h1.4v1.4H260.7z M260.8,36.1v-8.4h1.2v8.4H260.8z"/>
	<path d="M270.4,36.1V31c0-1.5-0.8-2.2-2.1-2.2s-2.1,0.8-2.1,2.2v5.2h-1.2v-8.4h1.2v0.9c0.6-0.7,1.4-1,2.3-1c0.9,0,1.6,0.3,2.1,0.8
		c0.6,0.6,0.9,1.4,0.9,2.3v5.4H270.4z"/>
</g>
<g>
	<path d="M31.5,147.6c-1.2,0-2.3-0.4-3.1-1.3c-1.1-1.1-1.1-2.3-1.1-4.9c0-2.6,0-3.8,1.1-4.9c0.8-0.8,1.9-1.3,3.1-1.3
		c2.2,0,3.8,1.3,4.2,3.6h-1.3c-0.3-1.5-1.4-2.4-2.9-2.4c-0.8,0-1.6,0.3-2.1,0.8c-0.8,0.8-0.9,1.6-0.9,4.1c0,2.5,0.1,3.4,0.9,4.1
		c0.5,0.5,1.3,0.8,2.1,0.8c1.5,0,2.6-1,2.9-2.4h1.3C35.3,146.3,33.7,147.6,31.5,147.6z"/>
	<path d="M42.6,147.6c-2.4,0-4.2-1.7-4.2-4.1v-8.1h1.3v8c0,1.8,1.2,3,2.9,3c1.8,0,2.9-1.2,2.9-3v-8h1.3v8.1
		C46.9,145.9,45.1,147.6,42.6,147.6z"/>
	<path d="M53.8,136.6v10.9h-1.3v-10.9H49v-1.2h8.3v1.2H53.8z"/>
</g>
<g>
	<path d="M30.9,170c-1.8,0-3-0.5-4.1-1.6l0.9-0.9c1,1,1.9,1.3,3.3,1.3c1.8,0,2.9-0.8,2.9-2.2c0-0.6-0.2-1.2-0.6-1.5
		s-0.7-0.4-1.6-0.6l-1.4-0.2c-1-0.2-1.7-0.5-2.2-0.9c-0.6-0.5-0.9-1.3-0.9-2.3c0-2.1,1.5-3.4,3.9-3.4c1.5,0,2.6,0.4,3.6,1.3
		l-0.8,0.8c-0.7-0.7-1.5-1-2.8-1c-1.6,0-2.5,0.9-2.5,2.2c0,0.6,0.2,1.1,0.5,1.4c0.4,0.3,1,0.6,1.6,0.7l1.3,0.2
		c1.1,0.2,1.7,0.4,2.2,0.8c0.7,0.6,1,1.4,1,2.4C35.1,168.7,33.4,170,30.9,170z"/>
	<path d="M41.4,169.9v-1.1l4.8-6.1c0.5-0.6,0.7-1.1,0.7-1.8c0-1.3-0.8-2.2-2.1-2.2c-1.1,0-2.1,0.6-2.1,2.2h-1.2
		c0-1.9,1.3-3.3,3.3-3.3c2,0,3.3,1.3,3.3,3.3c0,1-0.3,1.6-1,2.4l-4.2,5.4h5.2v1.1H41.4z"/>
	<path d="M53.6,170c-1.9,0-3.3-1.3-3.3-3.3v-5.6c0-2,1.4-3.3,3.3-3.3s3.3,1.3,3.3,3.3v5.6C56.9,168.7,55.4,170,53.6,170z
		 M55.6,161.1c0-1.3-0.7-2.3-2.1-2.3s-2.1,1-2.1,2.3v5.5c0,1.3,0.7,2.3,2.1,2.3s2.1-1,2.1-2.3V161.1z"/>
	<path d="M62.4,170c-1.9,0-3.3-1.3-3.3-3.3v-5.6c0-2,1.4-3.3,3.3-3.3c1.9,0,3.3,1.3,3.3,3.3v5.6C65.7,168.7,64.3,170,62.4,170z
		 M64.5,161.1c0-1.3-0.7-2.3-2.1-2.3s-2.1,1-2.1,2.3v5.5c0,1.3,0.7,2.3,2.1,2.3s2.1-1,2.1-2.3V161.1z"/>
	<path d="M32.3,185h-3.2v5h-1.3v-12.1h4.5c2.2,0,3.7,1.4,3.7,3.6S34.5,185,32.3,185z M32.1,179h-3.1v4.8h3.1c1.5,0,2.6-0.8,2.6-2.4
		C34.7,179.8,33.7,179,32.1,179z"/>
	<path d="M45.4,190c-2,0-3.6-1.4-3.6-3.4c0-1.4,0.8-2.4,1.8-2.9c-1-0.5-1.6-1.4-1.6-2.7c0-1.9,1.4-3.2,3.3-3.2s3.3,1.4,3.3,3.2
		c0,1.3-0.6,2.1-1.6,2.7c1,0.6,1.8,1.5,1.8,2.9C49,188.7,47.4,190,45.4,190z M45.4,184.2c-1.3,0-2.3,1-2.3,2.4s1,2.4,2.3,2.4
		s2.3-1,2.3-2.4S46.7,184.2,45.4,184.2z M45.4,178.8c-1.2,0-2.1,0.9-2.1,2.2c0,1.3,0.9,2.2,2.1,2.2s2.1-0.9,2.1-2.2
		C47.5,179.7,46.6,178.8,45.4,178.8z"/>
	<path d="M54.3,190c-1.9,0-3.3-1.3-3.3-3.3v-5.6c0-2,1.4-3.3,3.3-3.3s3.3,1.3,3.3,3.3v5.6C57.6,188.7,56.2,190,54.3,190z
		 M56.4,181.1c0-1.3-0.7-2.3-2.1-2.3s-2.1,1-2.1,2.3v5.5c0,1.3,0.7,2.3,2.1,2.3s2.1-1,2.1-2.3V181.1z"/>
</g>
<g>
	<path d="M132.9,147.5v-12.1h7.5v1.2h-6.2v4.3h5.3v1.2h-5.3v4.4h6.2v1.2H132.9z"/>
	<path d="M150.8,147.5l-6.4-9.7v9.7h-1.3v-12.1h1.2l6.4,9.7v-9.7h1.3v12.1H150.8z"/>
	<path d="M162.5,146.2c-0.8,0.9-2,1.4-3.2,1.4c-1.2,0-2.3-0.4-3.1-1.3c-1.1-1.1-1.1-2.3-1.1-4.9c0-2.6,0-3.8,1.1-4.9
		c0.8-0.8,1.9-1.3,3.1-1.3c2.3,0,3.9,1.5,4.2,3.6h-1.3c-0.3-1.5-1.4-2.5-2.9-2.5c-0.8,0-1.6,0.3-2.1,0.9c-0.8,0.8-0.8,1.6-0.8,4.1
		c0,2.5,0.1,3.4,0.8,4.1c0.5,0.5,1.3,0.9,2.1,0.9c0.9,0,1.7-0.4,2.3-1c0.5-0.6,0.7-1.3,0.7-2.2v-0.9h-3v-1.1h4.3v1.9
		C163.6,144.5,163.3,145.4,162.5,146.2z"/>
	<path d="M173.5,147.5l-2.8-5.4h-2.9v5.4h-1.3v-12.1h4.6c2.1,0,3.6,1.3,3.6,3.4c0,1.8-1.1,2.9-2.6,3.2l2.9,5.5H173.5z M171.1,136.6
		h-3.2v4.4h3.2c1.4,0,2.4-0.7,2.4-2.2C173.5,137.3,172.5,136.6,171.1,136.6z"/>
	<path d="M184.8,147.5l-1-2.7h-5.3l-1,2.7h-1.4l4.5-12.1h1.1l4.4,12.1H184.8z M181.2,137.3l-2.3,6.4h4.5L181.2,137.3z"/>
	<path d="M190.9,147.5h-1.1l-4-12.1h1.4l3.1,9.8l3.1-9.8h1.4L190.9,147.5z"/>
	<path d="M196.8,147.5v-12.1h7.5v1.2h-6.2v4.3h5.3v1.2h-5.3v4.4h6.2v1.2H196.8z"/>
</g>
<g>
	<path d="M136,170c-1.8,0-3-0.5-4.1-1.6l0.9-0.9c1,1,1.9,1.3,3.3,1.3c1.8,0,2.9-0.8,2.9-2.2c0-0.6-0.2-1.2-0.6-1.5
		c-0.4-0.3-0.7-0.4-1.6-0.6l-1.4-0.2c-1-0.2-1.7-0.5-2.2-0.9c-0.6-0.5-0.9-1.3-0.9-2.3c0-2.1,1.5-3.4,3.9-3.4c1.5,0,2.6,0.4,3.6,1.3
		l-0.8,0.8c-0.7-0.7-1.5-1-2.8-1c-1.6,0-2.5,0.9-2.5,2.2c0,0.6,0.2,1.1,0.5,1.4c0.4,0.3,1,0.6,1.6,0.7l1.3,0.2
		c1.1,0.2,1.7,0.4,2.2,0.8c0.7,0.6,1,1.4,1,2.4C140.2,168.7,138.5,170,136,170z"/>
	<path d="M149.7,169.9v-10.7l-2.3,2v-1.4l2.3-2h1.2v12.1H149.7z"/>
	<path d="M160.9,168v1.9h-1.2V168h-4.8v-1.1l4.4-9.1h1.3l-4.4,9.1h3.5v-3.4h1.2v3.4h1.5v1.1H160.9z"/>
	<path d="M167.5,170c-1.9,0-3.3-1.3-3.3-3.3v-5.6c0-2,1.4-3.3,3.3-3.3s3.3,1.3,3.3,3.3v5.6C170.8,168.7,169.4,170,167.5,170z
		 M169.6,161.1c0-1.3-0.7-2.3-2.1-2.3s-2.1,1-2.1,2.3v5.5c0,1.3,0.7,2.3,2.1,2.3s2.1-1,2.1-2.3V161.1z"/>
	<path d="M176.4,170c-1.9,0-3.3-1.3-3.3-3.3v-5.6c0-2,1.4-3.3,3.3-3.3s3.3,1.3,3.3,3.3v5.6C179.7,168.7,178.3,170,176.4,170z
		 M178.5,161.1c0-1.3-0.7-2.3-2.1-2.3s-2.1,1-2.1,2.3v5.5c0,1.3,0.7,2.3,2.1,2.3s2.1-1,2.1-2.3V161.1z"/>
	<path d="M137.4,185h-3.2v5h-1.3v-12.1h4.5c2.2,0,3.7,1.4,3.7,3.6S139.6,185,137.4,185z M137.3,179h-3.1v4.8h3.1
		c1.5,0,2.6-0.8,2.6-2.4C139.8,179.8,138.8,179,137.3,179z"/>
	<path d="M150.5,190c-2.1,0-3.4-1.4-3.4-3.5c0-0.9,0.3-1.7,0.8-2.7l3-6h1.3l-2.7,5.4c0.4-0.2,0.8-0.3,1.3-0.3c1.9,0,3.1,1.4,3.1,3.4
		C153.9,188.5,152.6,190,150.5,190z M150.5,184.1c-1.3,0-2.1,1-2.1,2.4c0,1.5,0.8,2.4,2.1,2.4s2.1-1,2.1-2.4
		C152.7,185.2,151.9,184.1,150.5,184.1z"/>
	<path d="M159.4,190c-1.9,0-3.3-1.3-3.3-3.3v-5.6c0-2,1.4-3.3,3.3-3.3s3.3,1.3,3.3,3.3v5.6C162.7,188.7,161.3,190,159.4,190z
		 M161.5,181.1c0-1.3-0.7-2.3-2.1-2.3s-2.1,1-2.1,2.3v5.5c0,1.3,0.7,2.3,2.1,2.3s2.1-1,2.1-2.3V181.1z"/>
</g>
<g>
	<path d="M261.2,147.9c-1.8,0-3-0.5-4.1-1.6l0.9-0.9c1,1,1.9,1.3,3.3,1.3c1.8,0,2.9-0.8,2.9-2.2c0-0.6-0.2-1.2-0.6-1.5
		c-0.4-0.3-0.7-0.4-1.6-0.6l-1.4-0.2c-1-0.2-1.7-0.5-2.2-0.9c-0.6-0.5-0.9-1.3-0.9-2.3c0-2.1,1.5-3.4,3.9-3.4c1.5,0,2.6,0.4,3.6,1.3
		l-0.8,0.8c-0.7-0.7-1.5-1-2.8-1c-1.6,0-2.5,0.9-2.5,2.2c0,0.6,0.2,1.1,0.5,1.4s1,0.6,1.6,0.7l1.3,0.2c1.1,0.2,1.7,0.4,2.2,0.8
		c0.7,0.6,1,1.4,1,2.4C265.4,146.6,263.7,147.9,261.2,147.9z"/>
	<path d="M271.9,147.9c-1.2,0-2.3-0.4-3.1-1.3c-1.1-1.1-1.1-2.3-1.1-4.9c0-2.6,0-3.8,1.1-4.9c0.8-0.8,1.9-1.3,3.1-1.3
		c2.2,0,3.8,1.3,4.2,3.6h-1.3c-0.3-1.5-1.4-2.4-2.9-2.4c-0.8,0-1.6,0.3-2.1,0.8c-0.8,0.8-0.8,1.6-0.8,4.1c0,2.5,0.1,3.4,0.8,4.1
		c0.5,0.5,1.3,0.8,2.1,0.8c1.5,0,2.6-1,2.9-2.4h1.3C275.7,146.5,274,147.9,271.9,147.9z"/>
	<path d="M285.8,146.6c-0.8,0.8-1.9,1.3-3.1,1.3s-2.3-0.4-3.1-1.3c-1.1-1.1-1.1-2.3-1.1-4.9c0-2.6,0-3.8,1.1-4.9
		c0.8-0.8,1.9-1.3,3.1-1.3s2.3,0.4,3.1,1.3c1.1,1.1,1.1,2.3,1.1,4.9C286.9,144.3,286.9,145.5,285.8,146.6z M284.8,137.6
		c-0.5-0.5-1.3-0.9-2.1-0.9s-1.6,0.3-2.1,0.9c-0.8,0.8-0.8,1.6-0.8,4.1c0,2.5,0.1,3.3,0.8,4.1c0.5,0.5,1.3,0.9,2.1,0.9
		s1.6-0.3,2.1-0.9c0.8-0.8,0.8-1.6,0.8-4.1C285.6,139.2,285.6,138.4,284.8,137.6z"/>
	<path d="M296.9,147.8l-2.8-5.4h-2.9v5.4H290v-12.1h4.6c2.1,0,3.6,1.3,3.6,3.4c0,1.8-1.1,2.9-2.6,3.2l2.9,5.5H296.9z M294.5,136.8
		h-3.2v4.4h3.2c1.4,0,2.4-0.7,2.4-2.2C296.9,137.6,295.9,136.8,294.5,136.8z"/>
	<path d="M301.1,147.8v-12.1h7.5v1.2h-6.2v4.3h5.3v1.2h-5.3v4.4h6.2v1.2H301.1z"/>
</g>
<g>
	<path d="M261.2,170c-1.8,0-3-0.5-4.1-1.6l0.9-0.9c1,1,1.9,1.3,3.3,1.3c1.8,0,2.9-0.8,2.9-2.2c0-0.6-0.2-1.2-0.6-1.5
		c-0.4-0.3-0.7-0.4-1.6-0.6l-1.4-0.2c-1-0.2-1.7-0.5-2.2-0.9c-0.6-0.5-0.9-1.3-0.9-2.3c0-2.1,1.5-3.4,3.9-3.4c1.5,0,2.6,0.4,3.6,1.3
		l-0.8,0.8c-0.7-0.7-1.5-1-2.8-1c-1.6,0-2.5,0.9-2.5,2.2c0,0.6,0.2,1.1,0.5,1.4c0.4,0.3,1,0.6,1.6,0.7l1.3,0.2
		c1.1,0.2,1.7,0.4,2.2,0.8c0.7,0.6,1,1.4,1,2.4C265.4,168.7,263.7,170,261.2,170z"/>
	<path d="M277.3,168v1.9h-1.2V168h-4.8v-1.1l4.4-9.1h1.3l-4.4,9.1h3.5v-3.4h1.2v3.4h1.5v1.1H277.3z"/>
	<path d="M283.9,170c-1.9,0-3.3-1.3-3.3-3.3v-5.6c0-2,1.4-3.3,3.3-3.3s3.3,1.3,3.3,3.3v5.6C287.2,168.7,285.8,170,283.9,170z
		 M286,161.1c0-1.3-0.7-2.3-2.1-2.3s-2.1,1-2.1,2.3v5.5c0,1.3,0.7,2.3,2.1,2.3s2.1-1,2.1-2.3V161.1z"/>
	<path d="M292.8,170c-1.9,0-3.3-1.3-3.3-3.3v-5.6c0-2,1.4-3.3,3.3-3.3s3.3,1.3,3.3,3.3v5.6C296.1,168.7,294.7,170,292.8,170z
		 M294.9,161.1c0-1.3-0.7-2.3-2.1-2.3s-2.1,1-2.1,2.3v5.5c0,1.3,0.7,2.3,2.1,2.3s2.1-1,2.1-2.3V161.1z"/>
	<path d="M262.6,185h-3.2v5h-1.3v-12.1h4.5c2.2,0,3.7,1.4,3.7,3.6S264.8,185,262.6,185z M262.5,179h-3.1v4.8h3.1
		c1.5,0,2.6-0.8,2.6-2.4C265.1,179.8,264,179,262.5,179z"/>
	<path d="M278.2,189.2c-0.6,0.6-1.3,0.9-2.4,0.9c-1.1,0-1.9-0.3-2.4-0.9c-0.5-0.5-0.8-1.2-0.9-2.1h1.2c0.2,1.2,0.8,1.9,2.1,1.9
		c0.6,0,1.1-0.2,1.5-0.6c0.6-0.6,0.7-1.6,0.7-2.5c0-1.5-0.3-2.9-2-2.9c-1.1,0-1.8,0.5-2,1.2h-1.1v-6.4h6.1v1.1h-5v3.8
		c0.5-0.5,1.2-0.8,2.2-0.8c0.9,0,1.6,0.3,2.1,0.8c0.9,0.9,1,2.1,1,3.2C279.2,187.2,279,188.3,278.2,189.2z"/>
	<path d="M284.6,190c-1.9,0-3.3-1.3-3.3-3.3v-5.6c0-2,1.4-3.3,3.3-3.3s3.3,1.3,3.3,3.3v5.6C287.9,188.7,286.5,190,284.6,190z
		 M286.7,181.1c0-1.3-0.7-2.3-2.1-2.3s-2.1,1-2.1,2.3v5.5c0,1.3,0.7,2.3,2.1,2.3s2.1-1,2.1-2.3V181.1z"/>
</g>
<path class="st1" d="M338,235.8H21.8c-6.6,0-12-5.4-12-12V21c0-6.6,5.4-12,12-12H338c6.6,0,12,5.4,12,12v202.8
	C350,230.4,344.6,235.8,338,235.8z"/>
</svg>
