<svg id="图层_1" data-name="图层 1" xmlns="http://www.w3.org/2000/svg" viewBox="0 0 401.28 271.13"><defs><style>.cls-1{fill:#231815;}.cls-2,.cls-3{fill:none;stroke-miterlimit:10;}.cls-2{stroke:#31006f;}.cls-3{stroke:#231815;}.cls-4{fill:#040000;}</style></defs><title>material_chipboard_6</title><path class="cls-1" d="M277.15,61.11h7.32V85.47h-4.74V69c0-.47,0-1.14,0-2s0-1.51,0-2l-4.62,20.44H270.2L265.62,65c0,.46,0,1.12,0,2s0,1.52,0,2V85.47h-4.74V61.11h7.4l4.44,19.15Z"/><path class="cls-1" d="M289.26,61.11h5v10l9.41-10h6.58l-10,10,10.51,14.34h-6.54l-7.51-10.64-2.45,2.49v8.15h-5Z"/><path class="cls-1" d="M329.23,61.74a5.9,5.9,0,0,1,2.28,1.7,7.73,7.73,0,0,1,1.22,2,6.83,6.83,0,0,1,.46,2.56,7.34,7.34,0,0,1-.88,3.41,4.87,4.87,0,0,1-2.89,2.37,4.52,4.52,0,0,1,2.38,1.93,8,8,0,0,1,.71,3.81V81.2a12.45,12.45,0,0,0,.13,2.27,2,2,0,0,0,.94,1.38v.62H328c-.15-.54-.26-1-.33-1.31a12.06,12.06,0,0,1-.21-2.1l0-2.26c0-1.56-.28-2.59-.8-3.11a4.09,4.09,0,0,0-2.9-.78h-5v9.56h-5V61.11h11.65A10.46,10.46,0,0,1,329.23,61.74Zm-10.52,3.6v6.54h5.48a5.89,5.89,0,0,0,2.44-.39,2.75,2.75,0,0,0,1.45-2.75,3.08,3.08,0,0,0-1.4-3,5,5,0,0,0-2.35-.43Z"/><path class="cls-1" d="M264.66,111.79a4.86,4.86,0,0,0,.93,2.5c.84,1,2.28,1.5,4.33,1.5a9.19,9.19,0,0,0,3-.4,2.82,2.82,0,0,0,2.17-2.82A2.07,2.07,0,0,0,274,110.7a11.56,11.56,0,0,0-3.38-1.14L268,109a16.17,16.17,0,0,1-5.34-1.87,5.94,5.94,0,0,1-2.46-5.27,7,7,0,0,1,2.4-5.43q2.41-2.18,7.08-2.17a10.84,10.84,0,0,1,6.65,2,7.28,7.28,0,0,1,2.89,5.93h-4.89a3.52,3.52,0,0,0-2-3.13,6.84,6.84,0,0,0-3-.61,5.75,5.75,0,0,0-3.22.8,2.5,2.5,0,0,0-1.21,2.21,2.09,2.09,0,0,0,1.19,2,14.84,14.84,0,0,0,3.24,1l4.27,1a11,11,0,0,1,4.22,1.76,6,6,0,0,1,2.17,5,7,7,0,0,1-2.58,5.54q-2.58,2.2-7.29,2.21a11.87,11.87,0,0,1-7.56-2.18,7.17,7.17,0,0,1-2.76-6Z"/><path class="cls-1" d="M299.91,108.77a9.26,9.26,0,0,1-6.1,1.78h-5.08v8.76h-5.05V95h10.46a8.4,8.4,0,0,1,5.76,1.89c1.44,1.25,2.15,3.2,2.15,5.83C302.05,105.54,301.34,107.58,299.91,108.77ZM296,100a4.1,4.1,0,0,0-2.71-.81h-4.59v7.17h4.59a3.91,3.91,0,0,0,2.71-.87,3.61,3.61,0,0,0,1-2.78A3.38,3.38,0,0,0,296,100Z"/><path class="cls-1" d="M308.46,97.5a10,10,0,0,1,7.49-3q6.07,0,8.89,4a8.8,8.8,0,0,1,1.67,4.55h-5.09a6.89,6.89,0,0,0-1.25-2.65,5.54,5.54,0,0,0-8.32.65,11,11,0,0,0-1.57,6.34q0,4.09,1.66,6.14a5.19,5.19,0,0,0,4.21,2,4.76,4.76,0,0,0,4-1.75A7.57,7.57,0,0,0,321.4,111h5.06a11,11,0,0,1-3.34,6.48,9.76,9.76,0,0,1-6.89,2.5,10.38,10.38,0,0,1-8.18-3.37q-3-3.39-3-9.29Q305.08,101,308.46,97.5Z"/><polygon class="cls-2" points="24.97 59.76 24.97 70.46 31.75 70.46 43.66 118.28 60.35 118.28 68.29 88.35 75.89 118.28 92.59 118.28 105.15 70.46 111.6 70.46 111.6 59.76 88.62 59.76 88.62 70.46 96.22 70.46 87.96 101.58 77.71 59.76 67.13 59.76 55.89 101.91 47.79 70.46 56.05 70.46 56.05 59.76 24.97 59.76 24.97 59.76"/><circle class="cls-3" cx="328.58" cy="28.68" r="7.09"/><path class="cls-4" d="M196.42,87.94l14.5-16.55-22.57-.1-3.93,4.34L165.67,56.49H142.05l29.79,32.26-30.9,32.59h25.9L184.07,102l4,4.34h26.26Zm-12.54,14.12L172.07,88.92l12.36-13.19,12,12.44Z"/><path class="cls-1" d="M30,223.56A5,5,0,0,1,26,222l.85-.84A4,4,0,0,0,30,222.45c1.69,0,2.72-.79,2.72-2.14a1.86,1.86,0,0,0-.55-1.45,2.5,2.5,0,0,0-1.51-.55l-1.34-.21a4.22,4.22,0,0,1-2.13-.88,2.71,2.71,0,0,1-.88-2.16c0-2,1.41-3.26,3.7-3.26a4.63,4.63,0,0,1,3.45,1.27l-.8.79a3.64,3.64,0,0,0-2.7-1A2.13,2.13,0,0,0,27.54,215a1.67,1.67,0,0,0,.52,1.33,3.36,3.36,0,0,0,1.56.63l1.26.19A3.75,3.75,0,0,1,33,218a2.89,2.89,0,0,1,1,2.29C34,222.31,32.38,223.56,30,223.56Z"/><path class="cls-1" d="M39.77,218.26v-1.09h6.79v1.09Zm0,2.75v-1.07h6.79V221Z"/><path class="cls-1" d="M56.1,223.56a5.05,5.05,0,0,1-4-1.53l.85-.84a4,4,0,0,0,3.15,1.26c1.69,0,2.73-.79,2.73-2.14a1.86,1.86,0,0,0-.56-1.45,2.5,2.5,0,0,0-1.51-.55l-1.34-.21a4.22,4.22,0,0,1-2.13-.88,2.71,2.71,0,0,1-.88-2.16c0-2,1.41-3.26,3.7-3.26a4.63,4.63,0,0,1,3.45,1.27l-.8.79a3.63,3.63,0,0,0-2.69-1c-1.55,0-2.44.86-2.44,2.15a1.67,1.67,0,0,0,.52,1.33,3.36,3.36,0,0,0,1.56.63l1.26.19a3.69,3.69,0,0,1,2.11.82,2.87,2.87,0,0,1,1,2.29C60.09,222.31,58.5,223.56,56.1,223.56Z"/><path class="cls-1" d="M67.84,222.86a2.8,2.8,0,0,1-2,.7,2.61,2.61,0,0,1-2.26-1V227H62.47V215.47h1.16v.94a2.56,2.56,0,0,1,2.26-1,2.8,2.8,0,0,1,2,.7,6.43,6.43,0,0,1,0,6.79Zm-2.19-6.45c-1.74,0-2,1.5-2,3.05s.28,3.06,2,3.06,2-1.5,2-3.06S67.38,216.41,65.65,216.41Z"/><path class="cls-1" d="M72.05,219.77c0,1.76.83,2.76,2.35,2.76a2.62,2.62,0,0,0,2.1-.91l.79.7a3.67,3.67,0,0,1-2.92,1.24c-2.11,0-3.49-1.27-3.49-4.1,0-2.58,1.25-4.09,3.28-4.09s3.28,1.5,3.28,3.87v.53Zm4-2.21a2.06,2.06,0,0,0-3.74,0,3.35,3.35,0,0,0-.24,1.34h4.22A3.35,3.35,0,0,0,76,217.56Z"/><path class="cls-1" d="M80.66,219.77c0,1.76.83,2.76,2.35,2.76a2.62,2.62,0,0,0,2.1-.91l.79.7A3.67,3.67,0,0,1,83,223.56c-2.11,0-3.49-1.27-3.49-4.1,0-2.58,1.25-4.09,3.28-4.09s3.28,1.5,3.28,3.87v.53Zm4-2.21a2.06,2.06,0,0,0-3.74,0,3.35,3.35,0,0,0-.24,1.34h4.22A3.53,3.53,0,0,0,84.64,217.56Z"/><path class="cls-1" d="M93.31,223.46v-1A2.6,2.6,0,0,1,91,223.56a2.8,2.8,0,0,1-2-.7,6.43,6.43,0,0,1,0-6.79,2.8,2.8,0,0,1,2-.7,2.57,2.57,0,0,1,2.25,1v-4.5h1.17v11.56Zm-2-7.05c-1.74,0-2,1.5-2,3.05s.28,3.06,2,3.06,2-1.5,2-3.06S93,216.41,91.3,216.41Z"/><path class="cls-1" d="M97.36,225.8V222h1.43v2.48Z"/><path class="cls-1" d="M110.24,218.7h-3.07v4.76h-1.24V211.9h4.31a3.4,3.4,0,1,1,0,6.8Zm-.12-5.7h-3v4.6h3a2.31,2.31,0,1,0,0-4.6Z"/><path class="cls-1" d="M115.34,218.26v-1.09h6.79v1.09Zm0,2.75v-1.07h6.79V221Z"/><path class="cls-1" d="M129,218.7h-3.07v4.76h-1.23V211.9H129a3.4,3.4,0,1,1,0,6.8Zm-.11-5.7h-3v4.6h3a2.3,2.3,0,1,0,0-4.6Z"/><path class="cls-1" d="M139.64,222.65a3.34,3.34,0,0,1-4.58,0,5.71,5.71,0,0,1,0-6.37,3.34,3.34,0,0,1,4.58,0,5.71,5.71,0,0,1,0,6.37Zm-.83-5.65a2.09,2.09,0,0,0-2.91,0,5,5,0,0,0,0,4.93,2.09,2.09,0,0,0,2.91,0,5.14,5.14,0,0,0,0-4.93Z"/><path class="cls-1" d="M150.64,223.46h-1.09l-2.1-6.2-2.07,6.2h-1.09l-2.54-8H143l1.84,6.41,2.09-6.41h1l2.11,6.41,1.82-6.41h1.26Z"/><path class="cls-1" d="M155.45,219.77c0,1.76.83,2.76,2.35,2.76a2.62,2.62,0,0,0,2.1-.91l.79.7a3.67,3.67,0,0,1-2.92,1.24c-2.11,0-3.49-1.27-3.49-4.1,0-2.58,1.25-4.09,3.28-4.09s3.28,1.5,3.28,3.87v.53Zm4-2.21a2.06,2.06,0,0,0-3.74,0,3.35,3.35,0,0,0-.24,1.34h4.22A3.35,3.35,0,0,0,159.43,217.56Z"/><path class="cls-1" d="M167.79,217a1.67,1.67,0,0,0-1.38-.59,2,2,0,0,0-1.91,2.14v4.91h-1.17v-8h1.17v1a2.69,2.69,0,0,1,2.24-1.07,2.44,2.44,0,0,1,1.91.75Z"/><path class="cls-1" d="M27,36.24A4.28,4.28,0,0,1,23.94,35c-1.14-1.13-1.14-2.32-1.14-4.89s0-3.76,1.14-4.9A4.31,4.31,0,0,1,27,23.94a4.08,4.08,0,0,1,4.2,3.6H29.9A2.86,2.86,0,0,0,27,25.09a2.93,2.93,0,0,0-2.09.85c-.77.78-.85,1.62-.85,4.15s.08,3.37.85,4.15a3,3,0,0,0,5-1.6h1.29A4.08,4.08,0,0,1,27,36.24Z"/><path class="cls-1" d="M41,35a4.43,4.43,0,0,1-6.19,0c-1.13-1.13-1.13-2.32-1.13-4.89s0-3.76,1.13-4.9a4.46,4.46,0,0,1,6.19,0c1.14,1.14,1.14,2.33,1.14,4.9S42.09,33.85,41,35Zm-1-9a2.95,2.95,0,0,0-4.18,0c-.77.78-.85,1.6-.85,4.13s.08,3.35.85,4.13a2.95,2.95,0,0,0,4.18,0c.76-.78.85-1.6.85-4.13S40.71,26.74,40,26Z"/><path class="cls-1" d="M52.85,36.14l-6.42-9.71v9.71h-1.3V24h1.23l6.42,9.67V24h1.3v12.1Z"/><path class="cls-1" d="M61,36.14H59.94L56,24h1.36l3.15,9.79L63.61,24H65Z"/><path class="cls-1" d="M66.86,36.14V24h7.51v1.15H68.15v4.27h5.31v1.16H68.15V35h6.22v1.16Z"/><path class="cls-1" d="M84,36.14l-2.75-5.37H78.35v5.37H77.06V24H81.7a3.27,3.27,0,0,1,3.59,3.36,3.14,3.14,0,0,1-2.64,3.25l2.87,5.49ZM81.58,25.19H78.35v4.44h3.23a2.23,2.23,0,1,0,0-4.44Z"/><path class="cls-1" d="M95.42,35a4.23,4.23,0,0,1-3.06,1.12H88.21V24h4.15a4.23,4.23,0,0,1,3.06,1.12c1.26,1.26,1.19,3.11,1.19,4.79S96.68,33.76,95.42,35Zm-.9-8.94a3.15,3.15,0,0,0-2.38-.89H89.5V35h2.64a3.14,3.14,0,0,0,2.38-.88c.83-.87.8-2.67.8-4.15S95.35,26.94,94.52,26.08Z"/><path class="cls-1" d="M148,36.24a3.21,3.21,0,0,1-3.36-3.48,6,6,0,0,1,.76-2.72l3-6h1.25L147,29.48a3.08,3.08,0,0,1,1.28-.26,3.16,3.16,0,0,1,3.14,3.44A3.3,3.3,0,0,1,148,36.24Zm0-6c-1.3,0-2.13.95-2.13,2.45a2.15,2.15,0,1,0,4.27,0A2.19,2.19,0,0,0,148,30.26Z"/><path class="cls-1" d="M164.72,36.14V31a2.08,2.08,0,1,0-4.15-.14v5.29h-1.22V31a2,2,0,0,0-2.06-2.23A2,2,0,0,0,155.2,31v5.15H154V27.78h1.22v.92a3,3,0,0,1,2.36-1,2.75,2.75,0,0,1,2.57,1.39,3.2,3.2,0,0,1,2.75-1.39,3.06,3.06,0,0,1,2.16.78,3.1,3.1,0,0,1,.9,2.33v5.35Z"/><path class="cls-1" d="M179.66,36.14V31a2.08,2.08,0,1,0-4.15-.14v5.29h-1.22V31a2,2,0,0,0-2.06-2.23A2,2,0,0,0,170.14,31v5.15h-1.22V27.78h1.22v.92a3.07,3.07,0,0,1,2.37-1,2.75,2.75,0,0,1,2.56,1.39,3.2,3.2,0,0,1,2.76-1.39,3.06,3.06,0,0,1,2.16.78,3.13,3.13,0,0,1,.9,2.33v5.35Z"/><path class="cls-1" d="M187.77,37.4h-1.2l4.84-14.62h1.21Z"/><path class="cls-1" d="M201.27,36.24A3.19,3.19,0,0,1,198,32.91V27.27a3.32,3.32,0,1,1,6.63,0v5.64A3.18,3.18,0,0,1,201.27,36.24Zm2.09-8.9a2.1,2.1,0,1,0-4.18,0v5.5a2.1,2.1,0,1,0,4.18,0Z"/><path class="cls-1" d="M207.2,36.14v-1.6h1.6v1.6Z"/><path class="cls-1" d="M211.45,36.14V35.05L216.23,29a2.74,2.74,0,0,0,.68-1.78,2.11,2.11,0,1,0-4.22,0h-1.22a3.14,3.14,0,0,1,3.33-3.28,3.1,3.1,0,0,1,3.33,3.26,3.59,3.59,0,0,1-1,2.45l-4.23,5.4h5.2v1.09Z"/><path class="cls-1" d="M225.88,34.22v1.92h-1.2V34.22h-4.83v-1.1L224.22,24h1.31l-4.37,9.08h3.52V29.68h1.2v3.44h1.48v1.1Z"/><path class="cls-1" d="M229.51,25.4V24h1.37V25.4Zm.06,10.74V27.78h1.23v8.36Z"/><path class="cls-1" d="M239.23,36.14V31a2.07,2.07,0,1,0-4.13,0v5.15h-1.22V27.78h1.22v.92a3,3,0,0,1,2.35-1,2.93,2.93,0,0,1,2.14.78,3.11,3.11,0,0,1,.86,2.33v5.35Z"/><path class="cls-1" d="M31.54,147.61a4.32,4.32,0,0,1-3.1-1.26c-1.13-1.14-1.13-2.33-1.13-4.89s0-3.76,1.13-4.9a4.36,4.36,0,0,1,3.1-1.26,4.09,4.09,0,0,1,4.2,3.61H34.41a2.86,2.86,0,0,0-2.87-2.45,2.91,2.91,0,0,0-2.09.85c-.77.78-.85,1.62-.85,4.15s.08,3.36.85,4.15a3,3,0,0,0,5-1.6h1.29A4.08,4.08,0,0,1,31.54,147.61Z"/><path class="cls-1" d="M42.64,147.61a4,4,0,0,1-4.22-4.09v-8.11h1.3v8a2.93,2.93,0,1,0,5.86,0v-8h1.29v8.11A4,4,0,0,1,42.64,147.61Z"/><path class="cls-1" d="M53.76,136.56v10.95H52.47V136.56H49v-1.15h8.3v1.15Z"/><path class="cls-1" d="M30.87,170.05a5.27,5.27,0,0,1-4.14-1.6l.88-.88a4.16,4.16,0,0,0,3.3,1.32c1.77,0,2.85-.83,2.85-2.24a1.94,1.94,0,0,0-.57-1.51,2.58,2.58,0,0,0-1.58-.58l-1.41-.22a4.45,4.45,0,0,1-2.23-.92,2.87,2.87,0,0,1-.92-2.26c0-2.06,1.48-3.42,3.88-3.42a4.85,4.85,0,0,1,3.6,1.33l-.83.83a3.83,3.83,0,0,0-2.83-1,2.24,2.24,0,0,0-2.55,2.25,1.76,1.76,0,0,0,.55,1.39,3.46,3.46,0,0,0,1.63.66l1.33.21a3.91,3.91,0,0,1,2.21.85,3,3,0,0,1,1,2.39C35.06,168.74,33.39,170.05,30.87,170.05Z"/><path class="cls-1" d="M44.63,170V159.2l-2.26,2V159.8l2.26-2h1.22V170Z"/><path class="cls-1" d="M56,169.16a3.21,3.21,0,0,1-2.41.9,3.36,3.36,0,0,1-2.43-.86,3.2,3.2,0,0,1-.85-2.11h1.22A1.88,1.88,0,0,0,53.59,169a2.12,2.12,0,0,0,1.49-.56,3.38,3.38,0,0,0,.67-2.47c0-1.48-.29-2.94-2-2.94a1.94,1.94,0,0,0-2,1.19H50.6v-6.36h6.11v1.09h-5v3.84a2.87,2.87,0,0,1,2.18-.83,2.91,2.91,0,0,1,2.09.76A4.39,4.39,0,0,1,57,166,4.19,4.19,0,0,1,56,169.16Z"/><path class="cls-1" d="M62.43,170.05a3.2,3.2,0,0,1-3.32-3.33v-5.65a3.32,3.32,0,1,1,6.63,0v5.65A3.19,3.19,0,0,1,62.43,170.05Zm2.09-8.91a2.1,2.1,0,1,0-4.18,0v5.51a2.1,2.1,0,1,0,4.18,0Z"/><path class="cls-1" d="M32.27,185H29.06v5h-1.3V177.84h4.51a3.57,3.57,0,1,1,0,7.13Zm-.12-6H29.06v4.81h3.09a2.41,2.41,0,1,0,0-4.81Z"/><path class="cls-1" d="M45.39,190.05a3.4,3.4,0,0,1-3.57-3.44,3.3,3.3,0,0,1,1.82-2.94A2.94,2.94,0,0,1,42.06,181a3.33,3.33,0,0,1,6.66,0,2.93,2.93,0,0,1-1.56,2.68,3.28,3.28,0,0,1,1.8,2.94A3.4,3.4,0,0,1,45.39,190.05Zm0-5.82a2.37,2.37,0,1,0,2.35,2.37A2.31,2.31,0,0,0,45.39,184.23Zm0-5.4A2.06,2.06,0,0,0,43.28,181a2.11,2.11,0,1,0,4.22,0A2.06,2.06,0,0,0,45.39,178.83Z"/><path class="cls-1" d="M54.27,190.05A3.2,3.2,0,0,1,51,186.72v-5.65a3.32,3.32,0,1,1,6.63,0v5.65A3.19,3.19,0,0,1,54.27,190.05Zm2.09-8.91a2.1,2.1,0,1,0-4.18,0v5.51a2.1,2.1,0,1,0,4.18,0Z"/><path class="cls-1" d="M132.87,147.51v-12.1h7.51v1.15h-6.22v4.27h5.3V142h-5.3v4.37h6.22v1.16Z"/><path class="cls-1" d="M150.79,147.51l-6.43-9.71v9.71h-1.29v-12.1h1.22l6.43,9.67v-9.67H152v12.1Z"/><path class="cls-1" d="M162.52,146.22a4.45,4.45,0,0,1-6.33.13c-1.14-1.14-1.14-2.33-1.14-4.89s0-3.76,1.14-4.9a4.33,4.33,0,0,1,3.1-1.26,4.13,4.13,0,0,1,4.23,3.62h-1.29a3,3,0,0,0-5-1.59c-.77.78-.85,1.59-.85,4.13s.08,3.36.85,4.14a2.88,2.88,0,0,0,2.09.86,3,3,0,0,0,2.29-1,3.2,3.2,0,0,0,.68-2.19v-.92h-3v-1.14h4.26v1.92A4.22,4.22,0,0,1,162.52,146.22Z"/><path class="cls-1" d="M173.51,147.51l-2.75-5.37h-2.91v5.37h-1.29v-12.1h4.64a3.27,3.27,0,0,1,3.59,3.36,3.14,3.14,0,0,1-2.64,3.25l2.88,5.49Zm-2.43-10.95h-3.23V141h3.23a2.23,2.23,0,1,0,0-4.44Z"/><path class="cls-1" d="M184.77,147.51l-1-2.74h-5.29l-1,2.74h-1.37l4.45-12.1h1.09l4.44,12.1Zm-3.59-10.25-2.28,6.39h4.53Z"/><path class="cls-1" d="M190.92,147.51h-1l-4-12.1h1.36l3.15,9.79,3.14-9.79h1.36Z"/><path class="cls-1" d="M196.79,147.51v-12.1h7.51v1.15h-6.22v4.27h5.3V142h-5.3v4.37h6.22v1.16Z"/><path class="cls-1" d="M136,170.05a5.28,5.28,0,0,1-4.15-1.6l.89-.88a4.14,4.14,0,0,0,3.29,1.32c1.77,0,2.86-.83,2.86-2.24a1.94,1.94,0,0,0-.58-1.51,2.58,2.58,0,0,0-1.58-.58l-1.41-.22a4.48,4.48,0,0,1-2.23-.92,2.87,2.87,0,0,1-.92-2.26c0-2.06,1.48-3.42,3.88-3.42a4.82,4.82,0,0,1,3.6,1.33l-.83.83a3.82,3.82,0,0,0-2.82-1c-1.62,0-2.55.9-2.55,2.25a1.75,1.75,0,0,0,.54,1.39,3.54,3.54,0,0,0,1.64.66l1.32.21a3.91,3.91,0,0,1,2.21.85,3,3,0,0,1,1,2.39C140.16,168.74,138.5,170.05,136,170.05Z"/><path class="cls-1" d="M149.73,170V159.2l-2.26,2V159.8l2.26-2H151V170Z"/><path class="cls-1" d="M158.66,170.05a3.2,3.2,0,0,1-3.32-3.33v-5.65a3.32,3.32,0,1,1,6.63,0v5.65A3.19,3.19,0,0,1,158.66,170.05Zm2.09-8.91a2.1,2.1,0,1,0-4.18,0v5.51a2.1,2.1,0,1,0,4.18,0Z"/><path class="cls-1" d="M167.53,170.05a3.19,3.19,0,0,1-3.31-3.33v-5.65a3.32,3.32,0,1,1,6.63,0v5.65A3.2,3.2,0,0,1,167.53,170.05Zm2.09-8.91a2.1,2.1,0,1,0-4.18,0v5.51a2.1,2.1,0,1,0,4.18,0Z"/><path class="cls-1" d="M176.41,170.05a3.2,3.2,0,0,1-3.32-3.33v-5.65a3.32,3.32,0,1,1,6.63,0v5.65A3.19,3.19,0,0,1,176.41,170.05Zm2.09-8.91a2.1,2.1,0,1,0-4.18,0v5.51a2.1,2.1,0,1,0,4.18,0Z"/><path class="cls-1" d="M137.37,185h-3.21v5h-1.29V177.84h4.5a3.57,3.57,0,1,1,0,7.13Zm-.12-6h-3.09v4.81h3.09a2.41,2.41,0,1,0,0-4.81Z"/><path class="cls-1" d="M150.53,190.05a3.22,3.22,0,0,1-3.36-3.49,6,6,0,0,1,.76-2.72l3-6h1.25l-2.7,5.44a3,3,0,0,1,1.28-.25,3.15,3.15,0,0,1,3.14,3.43A3.31,3.31,0,0,1,150.53,190.05Zm0-6a2.47,2.47,0,1,0,2.15,2.45A2.19,2.19,0,0,0,150.51,184.06Z"/><path class="cls-1" d="M159.37,190.05a3.19,3.19,0,0,1-3.31-3.33v-5.65a3.32,3.32,0,1,1,6.63,0v5.65A3.2,3.2,0,0,1,159.37,190.05Zm2.09-8.91a2.1,2.1,0,1,0-4.18,0v5.51a2.1,2.1,0,1,0,4.18,0Z"/><path class="cls-1" d="M261.22,147.86a5.27,5.27,0,0,1-4.15-1.59l.88-.89a4.14,4.14,0,0,0,3.3,1.33c1.77,0,2.86-.83,2.86-2.24a2,2,0,0,0-.58-1.52,2.64,2.64,0,0,0-1.58-.58l-1.41-.22a4.44,4.44,0,0,1-2.23-.91,2.89,2.89,0,0,1-.92-2.26c0-2.06,1.48-3.42,3.88-3.42a4.88,4.88,0,0,1,3.6,1.32l-.83.84a3.82,3.82,0,0,0-2.82-1c-1.62,0-2.55.9-2.55,2.24a1.77,1.77,0,0,0,.54,1.4,3.46,3.46,0,0,0,1.63.66l1.33.2a3.91,3.91,0,0,1,2.21.85,3.06,3.06,0,0,1,1,2.4C265.4,146.56,263.73,147.86,261.22,147.86Z"/><path class="cls-1" d="M271.87,147.86a4.33,4.33,0,0,1-3.09-1.25c-1.14-1.14-1.14-2.33-1.14-4.9s0-3.75,1.14-4.89a4.3,4.3,0,0,1,3.09-1.26,4.08,4.08,0,0,1,4.2,3.6h-1.32a2.87,2.87,0,0,0-2.88-2.45,3,3,0,0,0-2.09.85c-.76.79-.85,1.62-.85,4.15s.09,3.37.85,4.15a3,3,0,0,0,2.09.85,2.89,2.89,0,0,0,2.91-2.45h1.29A4.08,4.08,0,0,1,271.87,147.86Z"/><path class="cls-1" d="M285.8,146.61a4.46,4.46,0,0,1-6.19,0c-1.14-1.14-1.14-2.33-1.14-4.9s0-3.75,1.14-4.89a4.43,4.43,0,0,1,6.19,0c1.14,1.14,1.14,2.32,1.14,4.89S286.94,145.47,285.8,146.61Zm-1-9a2.95,2.95,0,0,0-4.18,0c-.76.78-.85,1.6-.85,4.13s.09,3.35.85,4.13a2.95,2.95,0,0,0,4.18,0c.77-.78.85-1.6.85-4.13S285.56,138.36,284.79,137.58Z"/><path class="cls-1" d="M296.93,147.76l-2.75-5.37h-2.91v5.37H290v-12.1h4.64a3.27,3.27,0,0,1,3.59,3.37,3.14,3.14,0,0,1-2.64,3.24l2.88,5.49Zm-2.43-10.94h-3.23v4.43h3.23a2.22,2.22,0,1,0,0-4.43Z"/><path class="cls-1" d="M301.13,147.76v-12.1h7.52v1.16h-6.23v4.26h5.31v1.16h-5.31v4.37h6.23v1.15Z"/><path class="cls-1" d="M261.22,170.05a5.28,5.28,0,0,1-4.15-1.6l.88-.88a4.16,4.16,0,0,0,3.3,1.32c1.77,0,2.86-.83,2.86-2.24a1.94,1.94,0,0,0-.58-1.51,2.58,2.58,0,0,0-1.58-.58l-1.41-.22a4.45,4.45,0,0,1-2.23-.92,2.87,2.87,0,0,1-.92-2.26c0-2.06,1.48-3.42,3.88-3.42a4.85,4.85,0,0,1,3.6,1.33l-.83.83a3.82,3.82,0,0,0-2.82-1c-1.62,0-2.55.9-2.55,2.25a1.75,1.75,0,0,0,.54,1.39,3.46,3.46,0,0,0,1.63.66l1.33.21a3.91,3.91,0,0,1,2.21.85,3,3,0,0,1,1,2.39C265.4,168.74,263.73,170.05,261.22,170.05Z"/><path class="cls-1" d="M277.3,168V170h-1.21V168h-4.83v-1.1l4.37-9.08h1.31l-4.37,9.08h3.52v-3.43h1.21v3.43h1.48V168Z"/><path class="cls-1" d="M283.89,170.05a3.19,3.19,0,0,1-3.31-3.33v-5.65a3.32,3.32,0,1,1,6.63,0v5.65A3.2,3.2,0,0,1,283.89,170.05Zm2.1-8.91a2.11,2.11,0,1,0-4.19,0v5.51a2.11,2.11,0,1,0,4.19,0Z"/><path class="cls-1" d="M292.77,170.05a3.2,3.2,0,0,1-3.32-3.33v-5.65a3.32,3.32,0,1,1,6.63,0v5.65A3.19,3.19,0,0,1,292.77,170.05Zm2.09-8.91a2.1,2.1,0,1,0-4.18,0v5.51a2.1,2.1,0,1,0,4.18,0Z"/><path class="cls-1" d="M262.61,185H259.4v5h-1.29V177.84h4.5a3.57,3.57,0,1,1,0,7.13Zm-.12-6H259.4v4.81h3.09a2.41,2.41,0,1,0,0-4.81Z"/><path class="cls-1" d="M278,188V190H276.8V188H272v-1.1l4.37-9.08h1.3l-4.36,9.08h3.51v-3.43H278v3.43h1.48V188Z"/><path class="cls-1" d="M284.61,190.05a3.2,3.2,0,0,1-3.32-3.33v-5.65a3.32,3.32,0,1,1,6.63,0v5.65A3.19,3.19,0,0,1,284.61,190.05Zm2.09-8.91a2.1,2.1,0,1,0-4.18,0v5.51a2.1,2.1,0,1,0,4.18,0Z"/><rect class="cls-3" x="9.8" y="9.02" width="340.16" height="226.77" rx="12" ry="12"/></svg>