<?xml version="1.0" encoding="utf-8"?>
<!-- Generator: Adobe Illustrator 25.0.0, SVG Export Plug-In . SVG Version: 6.00 Build 0)  -->
<svg version="1.1" id="Layer_1" xmlns="http://www.w3.org/2000/svg" xmlns:xlink="http://www.w3.org/1999/xlink" x="0px" y="0px"
	 viewBox="0 0 729.4 199.4" style="enable-background:new 0 0 729.4 199.4;" xml:space="preserve">
<style type="text/css">
	.st0{fill:#ECC13D;}
	.st1{clip-path:url(#SVGID_2_);}
	.st2{fill:#231F20;}
	.st3{fill:none;stroke:#14F400;stroke-miterlimit:10;}
</style>
<polygon class="st0" points="661.9,98.4 681.1,77.4 649.1,77.4 645.2,81.7 622.2,58.7 588.9,58.7 629.4,98.9 591.3,140.7 
	623.2,140.7 646.2,115.6 652.5,121.9 685.5,121.9 "/>
<g>
	<g>
		<defs>
			<rect id="SVGID_1_" x="44.7" y="59" width="641.6" height="82.1"/>
		</defs>
		<clipPath id="SVGID_2_">
			<use xlink:href="#SVGID_1_"  style="overflow:visible;"/>
		</clipPath>
		<g class="st1">
			<path class="st2" d="M44.6,96.2c0-4.9,4.6-7.4,9.2-7.4c3.4,0,6.7,1.3,8.2,4.1l-1.2,0.6c-1.3-2.3-4.2-3.3-7-3.3
				c-3.8,0-7.7,2-7.7,6v11.3c0,4.1,3.9,6.1,7.8,6.1c3.9,0,7.8-2,7.8-6.1v-3.9h-7.9v-1.4H63v5.3c0,5-4.6,7.5-9.2,7.5
				c-4.6,0-9.2-2.5-9.2-7.5V96.2L44.6,96.2z"/>
		</g>
	</g>
</g>
<polygon class="st2" points="68.2,114.3 68.2,88.8 69.6,88.8 69.6,112.9 82.3,112.9 82.3,114.3 "/>
<path class="st2" d="M86.7,107.2c0,4.1,4.1,6.1,8.3,6.1s8.4-2,8.4-6.1V95.9c0-4.3-4.2-6.1-8.4-6.1s-8.3,1.9-8.3,6.1V107.2z
	 M85.3,95.9c0-5,4.9-7.4,9.7-7.4s9.8,2.5,9.8,7.4v11.3c0,5-4.9,7.5-9.8,7.5s-9.7-2.5-9.7-7.5V95.9z"/>
<path class="st2" d="M120.9,113c3.9,0.1,6.7-1.3,6.7-5.6s-2.6-6-6.7-5.9h-8.2V113H120.9z M120.9,100.2c3.2,0,5.6-1.6,5.6-5
	s-2.5-5-5.6-5h-8.2v10.1L120.9,100.2z M120.9,114.4h-9.5V88.8h9.6c3.8,0,6.9,2.2,6.9,6.3c0,2.6-0.5,4.1-3.6,5.7
	c4.4,1.3,4.9,3.7,4.9,6.6C129,112.5,125.5,114.4,120.9,114.4L120.9,114.4z"/>
<path class="st2" d="M137.1,104.1h10.4l-5.2-14.2L137.1,104.1z M152.7,114.3h-1.5l-3.2-8.9h-11.4l-3.1,8.9H132l9.3-25.5h2.1
	L152.7,114.3L152.7,114.3z"/>
<polygon class="st2" points="157.2,114.3 157.2,88.8 158.6,88.8 158.6,112.9 171.4,112.9 171.4,114.3 "/>
<polygon class="st2" points="187.2,114.3 184.3,114.3 184.3,88.8 187.2,88.8 "/>
<polygon class="st2" points="209.8,88.8 212.9,88.8 212.9,114.3 209,114.3 196.5,94.1 196.5,114.3 193.5,114.3 193.5,88.8 
	196.7,88.8 209.8,109.9 "/>
<polygon class="st2" points="235.4,88.8 238.5,88.8 238.5,114.3 234.6,114.3 222.1,94.1 222.1,114.3 219.1,114.3 219.1,88.8 
	222.3,88.8 235.4,109.9 "/>
<path class="st2" d="M246.9,106.6c0,3.3,3.6,5,7.2,5s7.2-1.7,7.2-5V96.5c0-3.5-3.6-5-7.2-5s-7.2,1.6-7.2,5V106.6L246.9,106.6z
	 M243.9,96.5c0-5.3,5.1-8,10.2-8s10.2,2.7,10.2,8v10.2c0,5.3-5.1,8-10.2,8s-10.2-2.7-10.2-8V96.5z"/>
<polygon class="st2" points="269.9,88.8 277.8,110.9 285.6,88.8 288.7,88.8 279.6,114.3 275.9,114.3 266.7,88.8 "/>
<path class="st2" d="M302.6,103.1c-1.4-3.9-2.5-7-3.9-11.1c-1.3,3.8-2.5,7.2-3.9,11.1H302.6z M309.8,114.3h-3.2l-3-8.2h-9.8
	c-0.9,2.7-2,5.5-2.9,8.2h-3.2l9.1-25.5h3.7L309.8,114.3L309.8,114.3z"/>
<polygon class="st2" points="319.7,91.9 319.7,114.3 316.7,114.3 316.7,91.9 308.5,91.9 308.5,88.8 327.9,88.8 327.9,91.9 "/>
<polygon class="st2" points="335,114.3 332,114.3 332,88.8 335,88.8 "/>
<path class="st2" d="M343.4,106.6c0,3.3,3.6,5,7.2,5s7.2-1.7,7.2-5V96.5c0-3.5-3.6-5-7.2-5s-7.2,1.6-7.2,5V106.6L343.4,106.6z
	 M340.4,96.5c0-5.3,5.1-8,10.2-8s10.2,2.7,10.2,8v10.2c0,5.3-5.1,8-10.2,8s-10.2-2.7-10.2-8V96.5z"/>
<polygon class="st2" points="382.7,88.8 385.7,88.8 385.7,114.3 381.9,114.3 369.4,94.1 369.4,114.3 366.3,114.3 366.3,88.8 
	369.6,88.8 382.7,109.9 "/>
<polygon class="st2" points="403.2,100.9 416.1,100.9 416.1,102.3 403.2,102.3 403.2,112.9 417.2,112.9 417.2,114.3 401.8,114.3 
	401.8,88.8 417.2,88.8 417.2,90.2 403.2,90.2 "/>
<polygon class="st2" points="439.2,114.3 437.5,114.3 429.9,102.6 422.3,114.3 420.6,114.3 429.1,101.6 420.7,88.9 422.3,88.9 
	429.9,100.4 437.5,88.9 439.2,88.9 430.8,101.6 "/>
<path class="st2" d="M442.4,95.9c0-4.9,4.7-7.4,9.3-7.4c3.4,0,6.8,1.3,8.2,4l-1.3,0.7c-1.3-2.2-4.2-3.3-7.1-3.3c-3.9,0-7.8,2-7.8,6
	v11.5c0,4,3.9,6,7.8,6c2.8,0,5.8-1.1,7.1-3.3l1.2,0.6c-1.5,2.7-4.9,4.1-8.4,4.1c-4.5,0-9.2-2.5-9.2-7.4L442.4,95.9L442.4,95.9z"/>
<polygon class="st2" points="466.5,114.3 465.1,114.3 465.1,88.8 466.5,88.8 466.5,100.9 482.1,100.9 482.1,88.8 483.5,88.8 
	483.5,114.3 482.1,114.3 482.1,102.3 466.5,102.3 "/>
<path class="st2" d="M493.1,104.1h10.5l-5.2-14.2L493.1,104.1z M508.8,114.3h-1.5l-3.2-8.9h-11.4l-3.1,8.9H488l9.3-25.5h2
	L508.8,114.3L508.8,114.3z"/>
<polygon class="st2" points="529.8,112.6 529.8,88.8 531.2,88.8 531.2,114.3 529.2,114.3 514.7,91 514.7,114.3 513.3,114.3 
	513.3,88.8 515.1,88.8 "/>
<path class="st2" d="M537.8,95.9c0-4.9,4.6-7.4,9.2-7.4c3.4,0,6.7,1.3,8.2,4.1l-1.3,0.7c-1.3-2.3-4.1-3.3-7-3.3c-3.8,0-7.7,2-7.7,6
	v11.3c0,4.1,3.9,6.1,7.8,6.1s7.8-2,7.8-6.1v-3.9H547V102h9.2v5.3c0,5-4.6,7.5-9.2,7.5s-9.2-2.5-9.2-7.5V95.9L537.8,95.9z"/>
<polygon class="st2" points="563.5,100.9 576.5,100.9 576.5,102.3 563.5,102.3 563.5,112.9 577.6,112.9 577.6,114.3 562.1,114.3 
	562.1,88.8 577.6,88.8 577.6,90.2 563.5,90.2 "/>
<rect x="22" y="34.5" class="st3" width="687" height="131"/>
</svg>
